<?xml version="1.0" encoding="UTF-8"?>
<svg xmlns="http://www.w3.org/2000/svg" version="1.1" viewBox="0 0 4500 4500">
  <!-- Generator: Adobe Illustrator 28.7.7, SVG Export Plug-In . SVG Version: 1.2.0 Build 194)  -->
  <g>
    <g id="Layer_1">
      <g>
        <path d="M2249.994,3146.022c-386.055,0-714.867-246.146-839.212-590.667h-.013l-490.224,387.14c249.477,481.858,751.185,810.987,1329.448,810.987,374.051,0,716.06-137.707,978.493-365.378l-503.954-379.139c-137.453,86.831-300.159,137.057-474.54,137.057Z" style="fill: #34a853;"/>
        <path d="M2249.994,1353.978c218.54,0,418.731,78.868,573.874,209.809l431.229-428.243c-265.719-241.751-618.287-389.026-1005.103-389.026-583.72,0-1089.425,335.36-1336.428,824.658l490.833,391.701c119.206-354.038,452.764-608.9,845.595-608.9Z" style="fill: #ea4335;"/>
        <path d="M1357.6,2250c0-100.426,16.458-196.991,46.799-287.122l-490.833-391.701c-102.95,203.922-160.955,434.563-160.955,678.823,0,249.727,60.643,485.234,167.934,692.495l490.224-387.14c-34.414-95.291-53.169-198.125-53.169-305.354Z" style="fill: #ffb902;"/>
        <path d="M1404.399,1962.878l.013.013-.013-.013ZM2823.854,1563.8l.013-.013-.013.013Z" style="fill: none; stroke: #231f20; stroke-miterlimit: 10;"/>
        <path d="M3725.334,1991.507h-1496.913v563.528h860.924c-68.168,189.041-197.869,348.483-364.813,453.929l503.954,379.139c244.769-212.331,420.304-502.932,488.066-833.068,20.215-98.502,30.835-200.52,30.835-305.036,0-88.143-7.55-174.516-22.054-258.493Z" style="fill: #4285f4;"/>
      </g>
    </g>
  </g>
</svg>
