<?xml version="1.0" encoding="UTF-8"?>
<svg xmlns="http://www.w3.org/2000/svg" viewBox="0 0 250 250" width="250" height="250">
  <rect width="250" height="250" fill="#ffffff"/>
  <defs>
    <clipPath id="qr-logo-clip">
      <rect x="83.000" y="83.000" width="84.000" height="84.000" rx="25" ry="25"/>
    </clipPath>
  </defs>
  <g fill="#000000">
    <rect x="73.171" y="24.390" width="6.098" height="6.098" rx="2.317" ry="2.317"/><rect x="97.561" y="24.390" width="6.098" height="6.098" rx="2.317" ry="2.317"/><rect x="103.659" y="24.390" width="6.098" height="6.098" rx="2.317" ry="2.317"/><rect x="134.146" y="24.390" width="6.098" height="6.098" rx="2.317" ry="2.317"/><rect x="146.341" y="24.390" width="6.098" height="6.098" rx="2.317" ry="2.317"/><rect x="158.537" y="24.390" width="6.098" height="6.098" rx="2.317" ry="2.317"/><rect x="164.634" y="24.390" width="6.098" height="6.098" rx="2.317" ry="2.317"/><rect x="170.732" y="24.390" width="6.098" height="6.098" rx="2.317" ry="2.317"/><rect x="91.463" y="30.488" width="6.098" height="6.098" rx="2.317" ry="2.317"/><rect x="97.561" y="30.488" width="6.098" height="6.098" rx="2.317" ry="2.317"/><rect x="115.854" y="30.488" width="6.098" height="6.098" rx="2.317" ry="2.317"/><rect x="134.146" y="30.488" width="6.098" height="6.098" rx="2.317" ry="2.317"/><rect x="140.244" y="30.488" width="6.098" height="6.098" rx="2.317" ry="2.317"/><rect x="152.439" y="30.488" width="6.098" height="6.098" rx="2.317" ry="2.317"/><rect x="164.634" y="30.488" width="6.098" height="6.098" rx="2.317" ry="2.317"/><rect x="79.268" y="36.585" width="6.098" height="6.098" rx="2.317" ry="2.317"/><rect x="85.366" y="36.585" width="6.098" height="6.098" rx="2.317" ry="2.317"/><rect x="109.756" y="36.585" width="6.098" height="6.098" rx="2.317" ry="2.317"/><rect x="121.951" y="36.585" width="6.098" height="6.098" rx="2.317" ry="2.317"/><rect x="128.049" y="36.585" width="6.098" height="6.098" rx="2.317" ry="2.317"/><rect x="164.634" y="36.585" width="6.098" height="6.098" rx="2.317" ry="2.317"/><rect x="170.732" y="36.585" width="6.098" height="6.098" rx="2.317" ry="2.317"/><rect x="73.171" y="42.683" width="6.098" height="6.098" rx="2.317" ry="2.317"/><rect x="79.268" y="42.683" width="6.098" height="6.098" rx="2.317" ry="2.317"/><rect x="85.366" y="42.683" width="6.098" height="6.098" rx="2.317" ry="2.317"/><rect x="91.463" y="42.683" width="6.098" height="6.098" rx="2.317" ry="2.317"/><rect x="97.561" y="42.683" width="6.098" height="6.098" rx="2.317" ry="2.317"/><rect x="109.756" y="42.683" width="6.098" height="6.098" rx="2.317" ry="2.317"/><rect x="115.854" y="42.683" width="6.098" height="6.098" rx="2.317" ry="2.317"/><rect x="140.244" y="42.683" width="6.098" height="6.098" rx="2.317" ry="2.317"/><rect x="158.537" y="42.683" width="6.098" height="6.098" rx="2.317" ry="2.317"/><rect x="170.732" y="42.683" width="6.098" height="6.098" rx="2.317" ry="2.317"/><rect x="79.268" y="48.780" width="6.098" height="6.098" rx="2.317" ry="2.317"/><rect x="91.463" y="48.780" width="6.098" height="6.098" rx="2.317" ry="2.317"/><rect x="103.659" y="48.780" width="6.098" height="6.098" rx="2.317" ry="2.317"/><rect x="121.951" y="48.780" width="6.098" height="6.098" rx="2.317" ry="2.317"/><rect x="134.146" y="48.780" width="6.098" height="6.098" rx="2.317" ry="2.317"/><rect x="158.537" y="48.780" width="6.098" height="6.098" rx="2.317" ry="2.317"/><rect x="170.732" y="48.780" width="6.098" height="6.098" rx="2.317" ry="2.317"/><rect x="85.366" y="54.878" width="6.098" height="6.098" rx="2.317" ry="2.317"/><rect x="103.659" y="54.878" width="6.098" height="6.098" rx="2.317" ry="2.317"/><rect x="109.756" y="54.878" width="6.098" height="6.098" rx="2.317" ry="2.317"/><rect x="115.854" y="54.878" width="6.098" height="6.098" rx="2.317" ry="2.317"/><rect x="121.951" y="54.878" width="6.098" height="6.098" rx="2.317" ry="2.317"/><rect x="128.049" y="54.878" width="6.098" height="6.098" rx="2.317" ry="2.317"/><rect x="140.244" y="54.878" width="6.098" height="6.098" rx="2.317" ry="2.317"/><rect x="152.439" y="54.878" width="6.098" height="6.098" rx="2.317" ry="2.317"/><rect x="164.634" y="54.878" width="6.098" height="6.098" rx="2.317" ry="2.317"/><rect x="170.732" y="54.878" width="6.098" height="6.098" rx="2.317" ry="2.317"/><rect x="73.171" y="60.976" width="6.098" height="6.098" rx="2.317" ry="2.317"/><rect x="85.366" y="60.976" width="6.098" height="6.098" rx="2.317" ry="2.317"/><rect x="97.561" y="60.976" width="6.098" height="6.098" rx="2.317" ry="2.317"/><rect x="109.756" y="60.976" width="6.098" height="6.098" rx="2.317" ry="2.317"/><rect x="121.951" y="60.976" width="6.098" height="6.098" rx="2.317" ry="2.317"/><rect x="134.146" y="60.976" width="6.098" height="6.098" rx="2.317" ry="2.317"/><rect x="146.341" y="60.976" width="6.098" height="6.098" rx="2.317" ry="2.317"/><rect x="158.537" y="60.976" width="6.098" height="6.098" rx="2.317" ry="2.317"/><rect x="170.732" y="60.976" width="6.098" height="6.098" rx="2.317" ry="2.317"/><rect x="79.268" y="67.073" width="6.098" height="6.098" rx="2.317" ry="2.317"/><rect x="91.463" y="67.073" width="6.098" height="6.098" rx="2.317" ry="2.317"/><rect x="97.561" y="67.073" width="6.098" height="6.098" rx="2.317" ry="2.317"/><rect x="103.659" y="67.073" width="6.098" height="6.098" rx="2.317" ry="2.317"/><rect x="121.951" y="67.073" width="6.098" height="6.098" rx="2.317" ry="2.317"/><rect x="128.049" y="67.073" width="6.098" height="6.098" rx="2.317" ry="2.317"/><rect x="134.146" y="67.073" width="6.098" height="6.098" rx="2.317" ry="2.317"/><rect x="152.439" y="67.073" width="6.098" height="6.098" rx="2.317" ry="2.317"/><rect x="164.634" y="67.073" width="6.098" height="6.098" rx="2.317" ry="2.317"/><rect x="36.585" y="73.171" width="6.098" height="6.098" rx="2.317" ry="2.317"/><rect x="48.780" y="73.171" width="6.098" height="6.098" rx="2.317" ry="2.317"/><rect x="54.878" y="73.171" width="6.098" height="6.098" rx="2.317" ry="2.317"/><rect x="60.976" y="73.171" width="6.098" height="6.098" rx="2.317" ry="2.317"/><rect x="176.829" y="73.171" width="6.098" height="6.098" rx="2.317" ry="2.317"/><rect x="201.220" y="73.171" width="6.098" height="6.098" rx="2.317" ry="2.317"/><rect x="219.512" y="73.171" width="6.098" height="6.098" rx="2.317" ry="2.317"/><rect x="24.390" y="79.268" width="6.098" height="6.098" rx="2.317" ry="2.317"/><rect x="42.683" y="79.268" width="6.098" height="6.098" rx="2.317" ry="2.317"/><rect x="48.780" y="79.268" width="6.098" height="6.098" rx="2.317" ry="2.317"/><rect x="67.073" y="79.268" width="6.098" height="6.098" rx="2.317" ry="2.317"/><rect x="182.927" y="79.268" width="6.098" height="6.098" rx="2.317" ry="2.317"/><rect x="213.415" y="79.268" width="6.098" height="6.098" rx="2.317" ry="2.317"/><rect x="219.512" y="79.268" width="6.098" height="6.098" rx="2.317" ry="2.317"/><rect x="36.585" y="85.366" width="6.098" height="6.098" rx="2.317" ry="2.317"/><rect x="42.683" y="85.366" width="6.098" height="6.098" rx="2.317" ry="2.317"/><rect x="48.780" y="85.366" width="6.098" height="6.098" rx="2.317" ry="2.317"/><rect x="60.976" y="85.366" width="6.098" height="6.098" rx="2.317" ry="2.317"/><rect x="67.073" y="85.366" width="6.098" height="6.098" rx="2.317" ry="2.317"/><rect x="176.829" y="85.366" width="6.098" height="6.098" rx="2.317" ry="2.317"/><rect x="182.927" y="85.366" width="6.098" height="6.098" rx="2.317" ry="2.317"/><rect x="195.122" y="85.366" width="6.098" height="6.098" rx="2.317" ry="2.317"/><rect x="207.317" y="85.366" width="6.098" height="6.098" rx="2.317" ry="2.317"/><rect x="213.415" y="85.366" width="6.098" height="6.098" rx="2.317" ry="2.317"/><rect x="219.512" y="85.366" width="6.098" height="6.098" rx="2.317" ry="2.317"/><rect x="42.683" y="91.463" width="6.098" height="6.098" rx="2.317" ry="2.317"/><rect x="48.780" y="91.463" width="6.098" height="6.098" rx="2.317" ry="2.317"/><rect x="67.073" y="91.463" width="6.098" height="6.098" rx="2.317" ry="2.317"/><rect x="176.829" y="91.463" width="6.098" height="6.098" rx="2.317" ry="2.317"/><rect x="213.415" y="91.463" width="6.098" height="6.098" rx="2.317" ry="2.317"/><rect x="30.488" y="97.561" width="6.098" height="6.098" rx="2.317" ry="2.317"/><rect x="48.780" y="97.561" width="6.098" height="6.098" rx="2.317" ry="2.317"/><rect x="60.976" y="97.561" width="6.098" height="6.098" rx="2.317" ry="2.317"/><rect x="182.927" y="97.561" width="6.098" height="6.098" rx="2.317" ry="2.317"/><rect x="201.220" y="97.561" width="6.098" height="6.098" rx="2.317" ry="2.317"/><rect x="24.390" y="103.659" width="6.098" height="6.098" rx="2.317" ry="2.317"/><rect x="30.488" y="103.659" width="6.098" height="6.098" rx="2.317" ry="2.317"/><rect x="36.585" y="103.659" width="6.098" height="6.098" rx="2.317" ry="2.317"/><rect x="42.683" y="103.659" width="6.098" height="6.098" rx="2.317" ry="2.317"/><rect x="48.780" y="103.659" width="6.098" height="6.098" rx="2.317" ry="2.317"/><rect x="176.829" y="103.659" width="6.098" height="6.098" rx="2.317" ry="2.317"/><rect x="182.927" y="103.659" width="6.098" height="6.098" rx="2.317" ry="2.317"/><rect x="207.317" y="103.659" width="6.098" height="6.098" rx="2.317" ry="2.317"/><rect x="213.415" y="103.659" width="6.098" height="6.098" rx="2.317" ry="2.317"/><rect x="219.512" y="103.659" width="6.098" height="6.098" rx="2.317" ry="2.317"/><rect x="24.390" y="109.756" width="6.098" height="6.098" rx="2.317" ry="2.317"/><rect x="30.488" y="109.756" width="6.098" height="6.098" rx="2.317" ry="2.317"/><rect x="60.976" y="109.756" width="6.098" height="6.098" rx="2.317" ry="2.317"/><rect x="67.073" y="109.756" width="6.098" height="6.098" rx="2.317" ry="2.317"/><rect x="182.927" y="109.756" width="6.098" height="6.098" rx="2.317" ry="2.317"/><rect x="189.024" y="109.756" width="6.098" height="6.098" rx="2.317" ry="2.317"/><rect x="213.415" y="109.756" width="6.098" height="6.098" rx="2.317" ry="2.317"/><rect x="219.512" y="109.756" width="6.098" height="6.098" rx="2.317" ry="2.317"/><rect x="42.683" y="115.854" width="6.098" height="6.098" rx="2.317" ry="2.317"/><rect x="67.073" y="115.854" width="6.098" height="6.098" rx="2.317" ry="2.317"/><rect x="176.829" y="115.854" width="6.098" height="6.098" rx="2.317" ry="2.317"/><rect x="195.122" y="115.854" width="6.098" height="6.098" rx="2.317" ry="2.317"/><rect x="213.415" y="115.854" width="6.098" height="6.098" rx="2.317" ry="2.317"/><rect x="219.512" y="115.854" width="6.098" height="6.098" rx="2.317" ry="2.317"/><rect x="24.390" y="121.951" width="6.098" height="6.098" rx="2.317" ry="2.317"/><rect x="30.488" y="121.951" width="6.098" height="6.098" rx="2.317" ry="2.317"/><rect x="36.585" y="121.951" width="6.098" height="6.098" rx="2.317" ry="2.317"/><rect x="42.683" y="121.951" width="6.098" height="6.098" rx="2.317" ry="2.317"/><rect x="48.780" y="121.951" width="6.098" height="6.098" rx="2.317" ry="2.317"/><rect x="54.878" y="121.951" width="6.098" height="6.098" rx="2.317" ry="2.317"/><rect x="60.976" y="121.951" width="6.098" height="6.098" rx="2.317" ry="2.317"/><rect x="67.073" y="121.951" width="6.098" height="6.098" rx="2.317" ry="2.317"/><rect x="176.829" y="121.951" width="6.098" height="6.098" rx="2.317" ry="2.317"/><rect x="182.927" y="121.951" width="6.098" height="6.098" rx="2.317" ry="2.317"/><rect x="189.024" y="121.951" width="6.098" height="6.098" rx="2.317" ry="2.317"/><rect x="213.415" y="121.951" width="6.098" height="6.098" rx="2.317" ry="2.317"/><rect x="24.390" y="128.049" width="6.098" height="6.098" rx="2.317" ry="2.317"/><rect x="30.488" y="128.049" width="6.098" height="6.098" rx="2.317" ry="2.317"/><rect x="48.780" y="128.049" width="6.098" height="6.098" rx="2.317" ry="2.317"/><rect x="176.829" y="128.049" width="6.098" height="6.098" rx="2.317" ry="2.317"/><rect x="182.927" y="128.049" width="6.098" height="6.098" rx="2.317" ry="2.317"/><rect x="201.220" y="128.049" width="6.098" height="6.098" rx="2.317" ry="2.317"/><rect x="207.317" y="128.049" width="6.098" height="6.098" rx="2.317" ry="2.317"/><rect x="213.415" y="128.049" width="6.098" height="6.098" rx="2.317" ry="2.317"/><rect x="219.512" y="128.049" width="6.098" height="6.098" rx="2.317" ry="2.317"/><rect x="24.390" y="134.146" width="6.098" height="6.098" rx="2.317" ry="2.317"/><rect x="36.585" y="134.146" width="6.098" height="6.098" rx="2.317" ry="2.317"/><rect x="42.683" y="134.146" width="6.098" height="6.098" rx="2.317" ry="2.317"/><rect x="54.878" y="134.146" width="6.098" height="6.098" rx="2.317" ry="2.317"/><rect x="60.976" y="134.146" width="6.098" height="6.098" rx="2.317" ry="2.317"/><rect x="67.073" y="134.146" width="6.098" height="6.098" rx="2.317" ry="2.317"/><rect x="176.829" y="134.146" width="6.098" height="6.098" rx="2.317" ry="2.317"/><rect x="189.024" y="134.146" width="6.098" height="6.098" rx="2.317" ry="2.317"/><rect x="195.122" y="134.146" width="6.098" height="6.098" rx="2.317" ry="2.317"/><rect x="207.317" y="134.146" width="6.098" height="6.098" rx="2.317" ry="2.317"/><rect x="219.512" y="134.146" width="6.098" height="6.098" rx="2.317" ry="2.317"/><rect x="24.390" y="140.244" width="6.098" height="6.098" rx="2.317" ry="2.317"/><rect x="36.585" y="140.244" width="6.098" height="6.098" rx="2.317" ry="2.317"/><rect x="48.780" y="140.244" width="6.098" height="6.098" rx="2.317" ry="2.317"/><rect x="54.878" y="140.244" width="6.098" height="6.098" rx="2.317" ry="2.317"/><rect x="189.024" y="140.244" width="6.098" height="6.098" rx="2.317" ry="2.317"/><rect x="195.122" y="140.244" width="6.098" height="6.098" rx="2.317" ry="2.317"/><rect x="213.415" y="140.244" width="6.098" height="6.098" rx="2.317" ry="2.317"/><rect x="24.390" y="146.341" width="6.098" height="6.098" rx="2.317" ry="2.317"/><rect x="30.488" y="146.341" width="6.098" height="6.098" rx="2.317" ry="2.317"/><rect x="60.976" y="146.341" width="6.098" height="6.098" rx="2.317" ry="2.317"/><rect x="67.073" y="146.341" width="6.098" height="6.098" rx="2.317" ry="2.317"/><rect x="182.927" y="146.341" width="6.098" height="6.098" rx="2.317" ry="2.317"/><rect x="189.024" y="146.341" width="6.098" height="6.098" rx="2.317" ry="2.317"/><rect x="201.220" y="146.341" width="6.098" height="6.098" rx="2.317" ry="2.317"/><rect x="213.415" y="146.341" width="6.098" height="6.098" rx="2.317" ry="2.317"/><rect x="219.512" y="146.341" width="6.098" height="6.098" rx="2.317" ry="2.317"/><rect x="30.488" y="152.439" width="6.098" height="6.098" rx="2.317" ry="2.317"/><rect x="48.780" y="152.439" width="6.098" height="6.098" rx="2.317" ry="2.317"/><rect x="54.878" y="152.439" width="6.098" height="6.098" rx="2.317" ry="2.317"/><rect x="67.073" y="152.439" width="6.098" height="6.098" rx="2.317" ry="2.317"/><rect x="176.829" y="152.439" width="6.098" height="6.098" rx="2.317" ry="2.317"/><rect x="207.317" y="152.439" width="6.098" height="6.098" rx="2.317" ry="2.317"/><rect x="219.512" y="152.439" width="6.098" height="6.098" rx="2.317" ry="2.317"/><rect x="24.390" y="158.537" width="6.098" height="6.098" rx="2.317" ry="2.317"/><rect x="36.585" y="158.537" width="6.098" height="6.098" rx="2.317" ry="2.317"/><rect x="54.878" y="158.537" width="6.098" height="6.098" rx="2.317" ry="2.317"/><rect x="60.976" y="158.537" width="6.098" height="6.098" rx="2.317" ry="2.317"/><rect x="67.073" y="158.537" width="6.098" height="6.098" rx="2.317" ry="2.317"/><rect x="182.927" y="158.537" width="6.098" height="6.098" rx="2.317" ry="2.317"/><rect x="189.024" y="158.537" width="6.098" height="6.098" rx="2.317" ry="2.317"/><rect x="201.220" y="158.537" width="6.098" height="6.098" rx="2.317" ry="2.317"/><rect x="213.415" y="158.537" width="6.098" height="6.098" rx="2.317" ry="2.317"/><rect x="219.512" y="158.537" width="6.098" height="6.098" rx="2.317" ry="2.317"/><rect x="30.488" y="164.634" width="6.098" height="6.098" rx="2.317" ry="2.317"/><rect x="42.683" y="164.634" width="6.098" height="6.098" rx="2.317" ry="2.317"/><rect x="54.878" y="164.634" width="6.098" height="6.098" rx="2.317" ry="2.317"/><rect x="176.829" y="164.634" width="6.098" height="6.098" rx="2.317" ry="2.317"/><rect x="189.024" y="164.634" width="6.098" height="6.098" rx="2.317" ry="2.317"/><rect x="213.415" y="164.634" width="6.098" height="6.098" rx="2.317" ry="2.317"/><rect x="219.512" y="164.634" width="6.098" height="6.098" rx="2.317" ry="2.317"/><rect x="24.390" y="170.732" width="6.098" height="6.098" rx="2.317" ry="2.317"/><rect x="36.585" y="170.732" width="6.098" height="6.098" rx="2.317" ry="2.317"/><rect x="42.683" y="170.732" width="6.098" height="6.098" rx="2.317" ry="2.317"/><rect x="48.780" y="170.732" width="6.098" height="6.098" rx="2.317" ry="2.317"/><rect x="54.878" y="170.732" width="6.098" height="6.098" rx="2.317" ry="2.317"/><rect x="60.976" y="170.732" width="6.098" height="6.098" rx="2.317" ry="2.317"/><rect x="67.073" y="170.732" width="6.098" height="6.098" rx="2.317" ry="2.317"/><rect x="176.829" y="170.732" width="6.098" height="6.098" rx="2.317" ry="2.317"/><rect x="182.927" y="170.732" width="6.098" height="6.098" rx="2.317" ry="2.317"/><rect x="189.024" y="170.732" width="6.098" height="6.098" rx="2.317" ry="2.317"/><rect x="195.122" y="170.732" width="6.098" height="6.098" rx="2.317" ry="2.317"/><rect x="201.220" y="170.732" width="6.098" height="6.098" rx="2.317" ry="2.317"/><rect x="213.415" y="170.732" width="6.098" height="6.098" rx="2.317" ry="2.317"/><rect x="73.171" y="176.829" width="6.098" height="6.098" rx="2.317" ry="2.317"/><rect x="79.268" y="176.829" width="6.098" height="6.098" rx="2.317" ry="2.317"/><rect x="85.366" y="176.829" width="6.098" height="6.098" rx="2.317" ry="2.317"/><rect x="115.854" y="176.829" width="6.098" height="6.098" rx="2.317" ry="2.317"/><rect x="121.951" y="176.829" width="6.098" height="6.098" rx="2.317" ry="2.317"/><rect x="128.049" y="176.829" width="6.098" height="6.098" rx="2.317" ry="2.317"/><rect x="152.439" y="176.829" width="6.098" height="6.098" rx="2.317" ry="2.317"/><rect x="158.537" y="176.829" width="6.098" height="6.098" rx="2.317" ry="2.317"/><rect x="164.634" y="176.829" width="6.098" height="6.098" rx="2.317" ry="2.317"/><rect x="170.732" y="176.829" width="6.098" height="6.098" rx="2.317" ry="2.317"/><rect x="195.122" y="176.829" width="6.098" height="6.098" rx="2.317" ry="2.317"/><rect x="201.220" y="176.829" width="6.098" height="6.098" rx="2.317" ry="2.317"/><rect x="213.415" y="176.829" width="6.098" height="6.098" rx="2.317" ry="2.317"/><rect x="219.512" y="176.829" width="6.098" height="6.098" rx="2.317" ry="2.317"/><rect x="79.268" y="182.927" width="6.098" height="6.098" rx="2.317" ry="2.317"/><rect x="91.463" y="182.927" width="6.098" height="6.098" rx="2.317" ry="2.317"/><rect x="103.659" y="182.927" width="6.098" height="6.098" rx="2.317" ry="2.317"/><rect x="109.756" y="182.927" width="6.098" height="6.098" rx="2.317" ry="2.317"/><rect x="115.854" y="182.927" width="6.098" height="6.098" rx="2.317" ry="2.317"/><rect x="128.049" y="182.927" width="6.098" height="6.098" rx="2.317" ry="2.317"/><rect x="134.146" y="182.927" width="6.098" height="6.098" rx="2.317" ry="2.317"/><rect x="140.244" y="182.927" width="6.098" height="6.098" rx="2.317" ry="2.317"/><rect x="158.537" y="182.927" width="6.098" height="6.098" rx="2.317" ry="2.317"/><rect x="164.634" y="182.927" width="6.098" height="6.098" rx="2.317" ry="2.317"/><rect x="170.732" y="182.927" width="6.098" height="6.098" rx="2.317" ry="2.317"/><rect x="182.927" y="182.927" width="6.098" height="6.098" rx="2.317" ry="2.317"/><rect x="195.122" y="182.927" width="6.098" height="6.098" rx="2.317" ry="2.317"/><rect x="201.220" y="182.927" width="6.098" height="6.098" rx="2.317" ry="2.317"/><rect x="213.415" y="182.927" width="6.098" height="6.098" rx="2.317" ry="2.317"/><rect x="219.512" y="182.927" width="6.098" height="6.098" rx="2.317" ry="2.317"/><rect x="73.171" y="189.024" width="6.098" height="6.098" rx="2.317" ry="2.317"/><rect x="91.463" y="189.024" width="6.098" height="6.098" rx="2.317" ry="2.317"/><rect x="97.561" y="189.024" width="6.098" height="6.098" rx="2.317" ry="2.317"/><rect x="115.854" y="189.024" width="6.098" height="6.098" rx="2.317" ry="2.317"/><rect x="121.951" y="189.024" width="6.098" height="6.098" rx="2.317" ry="2.317"/><rect x="128.049" y="189.024" width="6.098" height="6.098" rx="2.317" ry="2.317"/><rect x="152.439" y="189.024" width="6.098" height="6.098" rx="2.317" ry="2.317"/><rect x="158.537" y="189.024" width="6.098" height="6.098" rx="2.317" ry="2.317"/><rect x="170.732" y="189.024" width="6.098" height="6.098" rx="2.317" ry="2.317"/><rect x="195.122" y="189.024" width="6.098" height="6.098" rx="2.317" ry="2.317"/><rect x="219.512" y="189.024" width="6.098" height="6.098" rx="2.317" ry="2.317"/><rect x="73.171" y="195.122" width="6.098" height="6.098" rx="2.317" ry="2.317"/><rect x="91.463" y="195.122" width="6.098" height="6.098" rx="2.317" ry="2.317"/><rect x="109.756" y="195.122" width="6.098" height="6.098" rx="2.317" ry="2.317"/><rect x="121.951" y="195.122" width="6.098" height="6.098" rx="2.317" ry="2.317"/><rect x="128.049" y="195.122" width="6.098" height="6.098" rx="2.317" ry="2.317"/><rect x="134.146" y="195.122" width="6.098" height="6.098" rx="2.317" ry="2.317"/><rect x="158.537" y="195.122" width="6.098" height="6.098" rx="2.317" ry="2.317"/><rect x="170.732" y="195.122" width="6.098" height="6.098" rx="2.317" ry="2.317"/><rect x="176.829" y="195.122" width="6.098" height="6.098" rx="2.317" ry="2.317"/><rect x="182.927" y="195.122" width="6.098" height="6.098" rx="2.317" ry="2.317"/><rect x="189.024" y="195.122" width="6.098" height="6.098" rx="2.317" ry="2.317"/><rect x="195.122" y="195.122" width="6.098" height="6.098" rx="2.317" ry="2.317"/><rect x="213.415" y="195.122" width="6.098" height="6.098" rx="2.317" ry="2.317"/><rect x="79.268" y="201.220" width="6.098" height="6.098" rx="2.317" ry="2.317"/><rect x="97.561" y="201.220" width="6.098" height="6.098" rx="2.317" ry="2.317"/><rect x="109.756" y="201.220" width="6.098" height="6.098" rx="2.317" ry="2.317"/><rect x="115.854" y="201.220" width="6.098" height="6.098" rx="2.317" ry="2.317"/><rect x="140.244" y="201.220" width="6.098" height="6.098" rx="2.317" ry="2.317"/><rect x="158.537" y="201.220" width="6.098" height="6.098" rx="2.317" ry="2.317"/><rect x="164.634" y="201.220" width="6.098" height="6.098" rx="2.317" ry="2.317"/><rect x="195.122" y="201.220" width="6.098" height="6.098" rx="2.317" ry="2.317"/><rect x="201.220" y="201.220" width="6.098" height="6.098" rx="2.317" ry="2.317"/><rect x="73.171" y="207.317" width="6.098" height="6.098" rx="2.317" ry="2.317"/><rect x="79.268" y="207.317" width="6.098" height="6.098" rx="2.317" ry="2.317"/><rect x="97.561" y="207.317" width="6.098" height="6.098" rx="2.317" ry="2.317"/><rect x="103.659" y="207.317" width="6.098" height="6.098" rx="2.317" ry="2.317"/><rect x="128.049" y="207.317" width="6.098" height="6.098" rx="2.317" ry="2.317"/><rect x="146.341" y="207.317" width="6.098" height="6.098" rx="2.317" ry="2.317"/><rect x="158.537" y="207.317" width="6.098" height="6.098" rx="2.317" ry="2.317"/><rect x="164.634" y="207.317" width="6.098" height="6.098" rx="2.317" ry="2.317"/><rect x="170.732" y="207.317" width="6.098" height="6.098" rx="2.317" ry="2.317"/><rect x="176.829" y="207.317" width="6.098" height="6.098" rx="2.317" ry="2.317"/><rect x="189.024" y="207.317" width="6.098" height="6.098" rx="2.317" ry="2.317"/><rect x="195.122" y="207.317" width="6.098" height="6.098" rx="2.317" ry="2.317"/><rect x="201.220" y="207.317" width="6.098" height="6.098" rx="2.317" ry="2.317"/><rect x="219.512" y="207.317" width="6.098" height="6.098" rx="2.317" ry="2.317"/><rect x="85.366" y="213.415" width="6.098" height="6.098" rx="2.317" ry="2.317"/><rect x="91.463" y="213.415" width="6.098" height="6.098" rx="2.317" ry="2.317"/><rect x="103.659" y="213.415" width="6.098" height="6.098" rx="2.317" ry="2.317"/><rect x="115.854" y="213.415" width="6.098" height="6.098" rx="2.317" ry="2.317"/><rect x="121.951" y="213.415" width="6.098" height="6.098" rx="2.317" ry="2.317"/><rect x="134.146" y="213.415" width="6.098" height="6.098" rx="2.317" ry="2.317"/><rect x="152.439" y="213.415" width="6.098" height="6.098" rx="2.317" ry="2.317"/><rect x="170.732" y="213.415" width="6.098" height="6.098" rx="2.317" ry="2.317"/><rect x="182.927" y="213.415" width="6.098" height="6.098" rx="2.317" ry="2.317"/><rect x="189.024" y="213.415" width="6.098" height="6.098" rx="2.317" ry="2.317"/><rect x="213.415" y="213.415" width="6.098" height="6.098" rx="2.317" ry="2.317"/><rect x="79.268" y="219.512" width="6.098" height="6.098" rx="2.317" ry="2.317"/><rect x="85.366" y="219.512" width="6.098" height="6.098" rx="2.317" ry="2.317"/><rect x="97.561" y="219.512" width="6.098" height="6.098" rx="2.317" ry="2.317"/><rect x="103.659" y="219.512" width="6.098" height="6.098" rx="2.317" ry="2.317"/><rect x="109.756" y="219.512" width="6.098" height="6.098" rx="2.317" ry="2.317"/><rect x="128.049" y="219.512" width="6.098" height="6.098" rx="2.317" ry="2.317"/><rect x="146.341" y="219.512" width="6.098" height="6.098" rx="2.317" ry="2.317"/><rect x="158.537" y="219.512" width="6.098" height="6.098" rx="2.317" ry="2.317"/><rect x="164.634" y="219.512" width="6.098" height="6.098" rx="2.317" ry="2.317"/><rect x="170.732" y="219.512" width="6.098" height="6.098" rx="2.317" ry="2.317"/><rect x="189.024" y="219.512" width="6.098" height="6.098" rx="2.317" ry="2.317"/><rect x="195.122" y="219.512" width="6.098" height="6.098" rx="2.317" ry="2.317"/><rect x="213.415" y="219.512" width="6.098" height="6.098" rx="2.317" ry="2.317"/><rect x="219.512" y="219.512" width="6.098" height="6.098" rx="2.317" ry="2.317"/>
  </g>
  <g fill="#000000">
    <rect x="24.390" y="24.390" width="6.098" height="6.098"/><rect x="30.488" y="24.390" width="6.098" height="6.098"/><rect x="36.585" y="24.390" width="6.098" height="6.098"/><rect x="42.683" y="24.390" width="6.098" height="6.098"/><rect x="48.780" y="24.390" width="6.098" height="6.098"/><rect x="54.878" y="24.390" width="6.098" height="6.098"/><rect x="60.976" y="24.390" width="6.098" height="6.098"/><rect x="182.927" y="24.390" width="6.098" height="6.098"/><rect x="189.024" y="24.390" width="6.098" height="6.098"/><rect x="195.122" y="24.390" width="6.098" height="6.098"/><rect x="201.220" y="24.390" width="6.098" height="6.098"/><rect x="207.317" y="24.390" width="6.098" height="6.098"/><rect x="213.415" y="24.390" width="6.098" height="6.098"/><rect x="219.512" y="24.390" width="6.098" height="6.098"/><rect x="24.390" y="30.488" width="6.098" height="6.098"/><rect x="60.976" y="30.488" width="6.098" height="6.098"/><rect x="182.927" y="30.488" width="6.098" height="6.098"/><rect x="219.512" y="30.488" width="6.098" height="6.098"/><rect x="24.390" y="36.585" width="6.098" height="6.098"/><rect x="36.585" y="36.585" width="6.098" height="6.098"/><rect x="42.683" y="36.585" width="6.098" height="6.098"/><rect x="48.780" y="36.585" width="6.098" height="6.098"/><rect x="60.976" y="36.585" width="6.098" height="6.098"/><rect x="182.927" y="36.585" width="6.098" height="6.098"/><rect x="195.122" y="36.585" width="6.098" height="6.098"/><rect x="201.220" y="36.585" width="6.098" height="6.098"/><rect x="207.317" y="36.585" width="6.098" height="6.098"/><rect x="219.512" y="36.585" width="6.098" height="6.098"/><rect x="24.390" y="42.683" width="6.098" height="6.098"/><rect x="36.585" y="42.683" width="6.098" height="6.098"/><rect x="42.683" y="42.683" width="6.098" height="6.098"/><rect x="48.780" y="42.683" width="6.098" height="6.098"/><rect x="60.976" y="42.683" width="6.098" height="6.098"/><rect x="182.927" y="42.683" width="6.098" height="6.098"/><rect x="195.122" y="42.683" width="6.098" height="6.098"/><rect x="201.220" y="42.683" width="6.098" height="6.098"/><rect x="207.317" y="42.683" width="6.098" height="6.098"/><rect x="219.512" y="42.683" width="6.098" height="6.098"/><rect x="24.390" y="48.780" width="6.098" height="6.098"/><rect x="36.585" y="48.780" width="6.098" height="6.098"/><rect x="42.683" y="48.780" width="6.098" height="6.098"/><rect x="48.780" y="48.780" width="6.098" height="6.098"/><rect x="60.976" y="48.780" width="6.098" height="6.098"/><rect x="182.927" y="48.780" width="6.098" height="6.098"/><rect x="195.122" y="48.780" width="6.098" height="6.098"/><rect x="201.220" y="48.780" width="6.098" height="6.098"/><rect x="207.317" y="48.780" width="6.098" height="6.098"/><rect x="219.512" y="48.780" width="6.098" height="6.098"/><rect x="24.390" y="54.878" width="6.098" height="6.098"/><rect x="60.976" y="54.878" width="6.098" height="6.098"/><rect x="182.927" y="54.878" width="6.098" height="6.098"/><rect x="219.512" y="54.878" width="6.098" height="6.098"/><rect x="24.390" y="60.976" width="6.098" height="6.098"/><rect x="30.488" y="60.976" width="6.098" height="6.098"/><rect x="36.585" y="60.976" width="6.098" height="6.098"/><rect x="42.683" y="60.976" width="6.098" height="6.098"/><rect x="48.780" y="60.976" width="6.098" height="6.098"/><rect x="54.878" y="60.976" width="6.098" height="6.098"/><rect x="60.976" y="60.976" width="6.098" height="6.098"/><rect x="182.927" y="60.976" width="6.098" height="6.098"/><rect x="189.024" y="60.976" width="6.098" height="6.098"/><rect x="195.122" y="60.976" width="6.098" height="6.098"/><rect x="201.220" y="60.976" width="6.098" height="6.098"/><rect x="207.317" y="60.976" width="6.098" height="6.098"/><rect x="213.415" y="60.976" width="6.098" height="6.098"/><rect x="219.512" y="60.976" width="6.098" height="6.098"/><rect x="24.390" y="182.927" width="6.098" height="6.098"/><rect x="30.488" y="182.927" width="6.098" height="6.098"/><rect x="36.585" y="182.927" width="6.098" height="6.098"/><rect x="42.683" y="182.927" width="6.098" height="6.098"/><rect x="48.780" y="182.927" width="6.098" height="6.098"/><rect x="54.878" y="182.927" width="6.098" height="6.098"/><rect x="60.976" y="182.927" width="6.098" height="6.098"/><rect x="24.390" y="189.024" width="6.098" height="6.098"/><rect x="60.976" y="189.024" width="6.098" height="6.098"/><rect x="24.390" y="195.122" width="6.098" height="6.098"/><rect x="36.585" y="195.122" width="6.098" height="6.098"/><rect x="42.683" y="195.122" width="6.098" height="6.098"/><rect x="48.780" y="195.122" width="6.098" height="6.098"/><rect x="60.976" y="195.122" width="6.098" height="6.098"/><rect x="24.390" y="201.220" width="6.098" height="6.098"/><rect x="36.585" y="201.220" width="6.098" height="6.098"/><rect x="42.683" y="201.220" width="6.098" height="6.098"/><rect x="48.780" y="201.220" width="6.098" height="6.098"/><rect x="60.976" y="201.220" width="6.098" height="6.098"/><rect x="24.390" y="207.317" width="6.098" height="6.098"/><rect x="36.585" y="207.317" width="6.098" height="6.098"/><rect x="42.683" y="207.317" width="6.098" height="6.098"/><rect x="48.780" y="207.317" width="6.098" height="6.098"/><rect x="60.976" y="207.317" width="6.098" height="6.098"/><rect x="24.390" y="213.415" width="6.098" height="6.098"/><rect x="60.976" y="213.415" width="6.098" height="6.098"/><rect x="24.390" y="219.512" width="6.098" height="6.098"/><rect x="30.488" y="219.512" width="6.098" height="6.098"/><rect x="36.585" y="219.512" width="6.098" height="6.098"/><rect x="42.683" y="219.512" width="6.098" height="6.098"/><rect x="48.780" y="219.512" width="6.098" height="6.098"/><rect x="54.878" y="219.512" width="6.098" height="6.098"/><rect x="60.976" y="219.512" width="6.098" height="6.098"/>
  </g>
  <g clip-path="url(#qr-logo-clip)">
    <g transform="translate(83.000, 83.000) scale(0.210000)">
      <g id="Layer_1-2" data-name="Layer 1">
    <rect width="400" height="400"/>
    <g>
      <path d="M72.01,294.23c9.95,14.11,22.33,24.71,36.58,34.11,46.15,30.46,103.74,36.14,154.89,15.13,27.43-11.27,49.87-29.38,67.45-53.13,56.82-76.73,26.68-185.99-58.68-228.19-32.16-15.9-68.1-22.32-103.56-15.39-62.46,12.21-111.69,61.08-125.2,123.1-9.2,42.27-.14,85.72,25.87,120.54" fill="#fff"/>
      <path d="M168.96,156.78c1.99-8.81-11.85-13.22-18.79-13.86-9.48-.86-18.2.44-27.76,2.59l-4.77,19.46c8.63-2.38,26.54-6.24,30.9,1.51,4.96,8.82-4.52,22.06-11.29,28.69-9.93,9.74-21.71,16.27-35.02,21.28l10.57-49.26-18.48-4.7c-7.78,28.18-14.53,55.66-20.56,84.24-3.15,14.9-4.75,28.82-5.89,44.61-26.32-35.18-35.48-79.07-26.17-121.76,13.66-62.65,63.46-112.02,126.64-124.35,35.87-7,72.23-.52,104.76,15.54,86.34,42.63,116.83,152.99,59.35,230.5-17.78,23.98-40.48,42.28-68.23,53.66-51.74,21.23-110,15.49-156.68-15.28-14.41-9.5-26.94-20.2-37-34.46l5.32-22.4-.53,20.12c9.65-17.6,16.11-36.64,21.71-56.66,27.08-10.33,54.66-25.15,69.57-50.65,9.77-16.71-1.13-13.36,2.36-28.83ZM113.49,116.36l6.64-10.02c.07,7.83-3.25,13.72-6.07,20.35,10.9-2.77,14.57-12.65,14.35-23.92l3.69,13.02c4.22-12.59-4.12-26.36-13.06-35.16-.55,9.03-3.47,15.95-9.71,21.61-7.28,6.61-10.78,16.65-8.16,26.03l3.71.53c-1.69-2.6-1.04-4.85.09-7.8,1.61-4.23,2.24-8.88,4.88-12.08-2.23,5.3-3.48,10.3-1.43,15.16l5.07-7.71ZM132.25,266.44c32.74-11.13,80.57-35.9,95.44-67.66,6.05-12.92,2.03-27.17-10.93-33.29-10.03-4.73-24.22-4.85-20.52-17.7,3.73-12.95,16.96-19.94,26.87-27.59-8.27,2.26-14.97,6.13-22.64,9.7,9.77-10.74,23.23-14.14,36.86-19.8-23.61,1.27-63.06,22.27-64.23,49.8-.34,7.93,3.69,14.75,11.7,16.42l14.27,2.98c2.83.59,6.51,2.87,7.49,5.01,4.62,10.07-5.39,23.16-12.79,30.48-15.77,15.6-34.41,27.62-54.55,36.96l-17.46,8.09c8.87.65,14.84-4.78,23.51-5.56-12.91,7.23-26.5,11.81-40.4,17.49,9.77.25,18.03-2.18,27.38-5.36ZM241.33,213.24l-10.18,4.7c-3.7,1.71-7.36,2.75-10.19,6.4l35.99-8.56,24.28-6.55c-16.91,8.12-34.97,12.41-53.21,17.58-7.14,2.03-13.54,3.84-19.95,7.05,25.22-5.1,54.19-12.56,77.74-22.19,8.54-3.49,15.77-8.17,24.13-12.24l-13.53,10.34c10.67-3.02,18.11-10.63,26.67-17.67-5.63,10.47-16.4,15.15-25.84,20.82,24.53-7.82,40.34-27.84,37.69-54.01-2.64-26.11-29.94-42.81-54.09-45.38-26.2-2.79-39.87-2.08-59.56,13.73l14.09-.87c-7.08,2.05-12.6,2.81-18.53,5.23l26.34-2.33-5.44,49.49c-.52,4.73.65,10.06.7,15.37l4.39-13.34-1.07,19.17c4.7-1.5,10.37-2.61,13.1-6.23,2.66-3.52,2.87-9.28,3.47-13.73l6.85-50.16c12.84-.29,25.96,2.5,36.22,9.72,10.41,7.33,13.57,19.57,7.52,30.45-4.74,8.53-11.99,14.57-20.83,19.09-13.84,7.1-28.2,12.02-43.07,16.83-5.16,1.67-9.61,3.61-12.91,7.84l9.22-.56ZM101.4,156.54l6.55-.26c1.12-.04,2.27-2.66,2.61-3.87l3.7-13.19c.22-.77,2.21-1.76,2.91-1.38l-4.75,18.14-3.36,1.85,5.52.95,5.81-22.47-19.54-5.45-6.94,28.65,7.07,1.48c-1.98-1.41-2.78-1.72-3.42-3.39,4.3-.39,19.01,4.75,11.43,4.88l-2.68.05,5.76,1.65c.7.2,2.07-2.17,1.87-2.87s-1.31-1.17-2.47-1.54l-10.08-3.23ZM63.52,188.39c3.56-1.31,5.72-2.81,8.38-4.48l14.37-8.99c2.18-3.17,3.25-9.3,3.71-13.85-12.12,7.75-23.46,15.86-32.32,26.45,8.96-4.59,14.15-12.24,23.7-15.33l-17.84,16.19Z"/>
      <path d="M241.56,213.08l-9.22.56c3.29-4.23,7.75-6.18,12.91-7.84,14.87-4.8,29.22-9.73,43.07-16.83,8.83-4.53,16.09-10.56,20.83-19.09,6.04-10.88,2.89-23.13-7.52-30.45-10.26-7.22-23.38-10.01-36.22-9.72l-6.85,50.16c-.61,4.45-.82,10.21-3.47,13.73-2.73,3.62-8.4,4.72-13.1,6.23l1.07-19.17-4.39,13.34c-.05-5.31-1.22-10.63-.7-15.37l5.44-49.49-26.34,2.33c5.93-2.43,11.45-3.18,18.53-5.23l-14.09.87c19.69-15.81,33.36-16.52,59.56-13.73,24.15,2.57,51.45,19.26,54.09,45.38,2.64,26.17-13.16,46.19-37.69,54.01,9.44-5.67,20.21-10.35,25.84-20.82-8.56,7.04-16.01,14.66-26.67,17.67l13.53-10.34c-8.36,4.07-15.59,8.75-24.13,12.24-23.55,9.63-52.52,17.1-77.74,22.19,6.41-3.21,12.8-5.02,19.95-7.05,18.24-5.17,36.3-9.46,53.21-17.58l-24.28,6.55-35.99,8.56c2.83-3.66,6.49-4.69,10.19-6.4l10.18-4.7Z" fill="#fff"/>
      <path d="M132.47,266.29c-9.34,3.18-17.61,5.61-27.38,5.36,13.9-5.68,27.48-10.27,40.4-17.49-8.66.77-14.64,6.21-23.51,5.56l17.46-8.09c20.15-9.34,38.78-21.36,54.55-36.96,7.4-7.32,17.41-20.41,12.79-30.48-.98-2.14-4.66-4.42-7.49-5.01l-14.27-2.98c-8.01-1.67-12.04-8.49-11.7-16.42,1.16-27.53,40.61-48.54,64.23-49.8-13.64,5.66-27.09,9.06-36.86,19.8,7.67-3.57,14.37-7.44,22.64-9.7-9.91,7.65-23.14,14.64-26.87,27.59-3.7,12.84,10.49,12.96,20.52,17.7,12.97,6.12,16.98,20.37,10.93,33.29-14.88,31.77-62.7,56.53-95.44,67.66Z" fill="#fff"/>
      <path d="M113.72,116.21l-5.07,7.71c-2.05-4.86-.8-9.86,1.43-15.16-2.63,3.2-3.26,7.85-4.88,12.08-1.13,2.95-1.78,5.2-.09,7.8l-3.71-.53c-2.62-9.38.88-19.42,8.16-26.03,6.24-5.66,9.16-12.58,9.71-21.61,8.93,8.8,17.28,22.57,13.06,35.16l-3.69-13.02c.22,11.26-3.45,21.15-14.35,23.92,2.81-6.63,6.14-12.52,6.07-20.35l-6.64,10.02Z" fill="#fff"/>
      <path d="M101.63,156.38l10.08,3.23c1.16.37,2.27.84,2.47,1.54s-1.17,3.07-1.87,2.87l-5.76-1.65,2.68-.05c7.58-.14-7.13-5.28-11.43-4.88.64,1.67,1.44,1.98,3.42,3.39l-7.07-1.48,6.94-28.65,19.54,5.45-5.81,22.47-5.52-.95,3.36-1.85,4.75-18.14c-.7-.38-2.69.61-2.91,1.38l-3.7,13.19c-.34,1.21-1.5,3.82-2.61,3.87l-6.55.26ZM100.11,153.26c3.46-6.24,4.67-12.17,4.92-18.85-3.21,5.85-4.5,12.33-4.92,18.85Z" fill="#fff"/>
      <path d="M63.74,188.23l17.84-16.19c-9.55,3.09-14.74,10.74-23.7,15.33,8.86-10.6,20.21-18.7,32.32-26.45-.45,4.55-1.52,10.67-3.71,13.85l-14.37,8.99c-2.67,1.67-4.82,3.17-8.38,4.48Z" fill="#fff"/>
      <path d="M100.11,153.26c.42-6.52,1.72-13,4.92-18.85-.26,6.68-1.47,12.61-4.92,18.85Z"/>
    </g>
  </g>
    </g>
  </g>
</svg>
