<?xml version="1.0" encoding="UTF-8"?>
<svg id="Layer_1" data-name="Layer 1" xmlns="http://www.w3.org/2000/svg" viewBox="0 0 501 501">
  <circle cx="250.5" cy="250.5" r="250" stroke="#000" stroke-miterlimit="10"/>
  <g>
    <path d="M115.88,341.32c5.87-2.71,10.97-4.39,15.32-5.04,4.35-.65,8.07-.51,11.15.43s5.66,2.44,7.71,4.5c2.06,2.06,3.72,4.45,5,7.16,1.28,2.72,2,5.55,2.16,8.49.17,2.94-.44,5.91-1.81,8.9-1.37,2.99-3.67,5.92-6.9,8.78-3.23,2.86-7.63,5.58-13.19,8.15l-46.92,21.7-19.45-41.37,46.92-21.7ZM98.62,383.93l29.97-13.87c2.43-1.13,4.42-2.25,5.96-3.35,1.54-1.1,2.67-2.22,3.39-3.33.72-1.13,1.08-2.27,1.08-3.45,0-1.18-.31-2.42-.91-3.71-.61-1.29-1.37-2.32-2.28-3.07s-2.03-1.23-3.36-1.4c-1.32-.17-2.91-.03-4.75.43-1.85.46-3.99,1.25-6.42,2.38l-29.97,13.87,7.29,15.52Z" fill="#fff"/>
    <path d="M181.34,340.15l2.43,5.17,49.53-22.91,5.77,12.29-65.82,30.44-19.45-41.37,65.69-30.38,5.77,12.28-49.4,22.85,2.43,5.17,40.41-18.69,3.03,6.46-40.4,18.69Z" fill="#fff"/>
    <path d="M257.65,313.12l-5.32-11.31,32.52-15.04c1.31-.6,2.3-1.32,3-2.13.7-.83.73-1.9.1-3.24-.65-1.38-1.51-2.06-2.58-2.03-1.08.02-2.26.33-3.57.94l-31.47,14.56,13.37,28.44-16.29,7.54-19.45-41.37,45.23-20.92c3.26-1.5,6.42-2.69,9.48-3.56,3.06-.86,5.92-1.21,8.6-1.03s5.12,1.04,7.33,2.6c2.21,1.55,4.09,3.98,5.66,7.3,1.56,3.32,2.19,6.23,1.88,8.73-.31,2.5-1.3,4.71-2.98,6.64-1.68,1.94-3.88,3.71-6.58,5.33-2.71,1.61-5.68,3.18-8.94,4.69l-29.97,13.87Z" fill="#fff"/>
    <path d="M363.63,278.66c-9.48,4.38-17.49,7.09-24.05,8.1-6.56,1.01-11.92.5-16.08-1.54-4.16-2.03-7.37-5.47-9.64-10.3-2.27-4.82-2.85-9.47-1.75-13.94s4.15-8.87,9.15-13.2c5-4.33,12.23-8.68,21.7-13.07s17.48-7.08,24.04-8.09,11.92-.5,16.08,1.54c4.16,2.04,7.37,5.47,9.64,10.29,2.27,4.83,2.86,9.48,1.76,13.95s-4.15,8.88-9.15,13.21-12.23,8.68-21.7,13.06ZM357.85,266.38c4.47-2.07,8.22-4.13,11.23-6.18,3-2.05,5.07-4.18,6.19-6.4,1.12-2.22,1.08-4.63-.14-7.22-1.22-2.58-3.04-4.16-5.48-4.74-2.44-.57-5.42-.38-8.93.59-3.51.97-7.51,2.49-11.98,4.56s-8.27,4.15-11.38,6.25-5.29,4.28-6.52,6.55c-1.23,2.28-1.24,4.71-.02,7.29,1.22,2.59,3.1,4.15,5.65,4.67,2.55.52,5.64.27,9.26-.74,3.62-1.02,7.66-2.57,12.14-4.63Z" fill="#fff"/>
    <path d="M388.86,215.05l67.78-31.35,5.77,12.28-67.78,31.35-5.77-12.28ZM419.98,214.58l16.29-7.53,14.07,29.93-16.29,7.53-14.07-29.93Z" fill="#fff"/>
  </g>
  <g>
    <path d="M85.13,278.25c5.87-2.71,10.97-4.39,15.32-5.04,4.35-.65,8.07-.51,11.15.43s5.66,2.44,7.71,4.5c2.06,2.06,3.72,4.45,5,7.16,1.28,2.72,2,5.55,2.16,8.49.17,2.94-.44,5.91-1.81,8.9-1.37,2.99-3.67,5.92-6.9,8.78-3.23,2.86-7.63,5.58-13.19,8.15l-46.92,21.7-19.45-41.37,46.92-21.7ZM67.88,320.86l29.97-13.87c2.43-1.13,4.42-2.25,5.96-3.35,1.54-1.1,2.67-2.22,3.39-3.33.72-1.13,1.08-2.27,1.08-3.45,0-1.18-.31-2.42-.91-3.71-.61-1.29-1.37-2.32-2.28-3.07s-2.03-1.23-3.36-1.4c-1.32-.17-2.91-.03-4.75.43-1.85.46-3.99,1.25-6.42,2.38l-29.97,13.87,7.29,15.52Z" fill="#fff"/>
    <path d="M150.6,277.09l2.43,5.17,49.53-22.91,5.77,12.29-65.82,30.44-19.45-41.37,65.69-30.39,5.77,12.28-49.4,22.85,2.43,5.17,40.41-18.69,3.03,6.46-40.4,18.69Z" fill="#fff"/>
    <path d="M226.91,250.05l-5.32-11.31,32.52-15.04c1.31-.6,2.3-1.32,3-2.13.7-.83.73-1.9.1-3.24-.65-1.38-1.51-2.06-2.58-2.03-1.08.02-2.26.33-3.57.94l-31.47,14.56,13.37,28.45-16.29,7.54-19.45-41.38,45.23-20.92c3.26-1.5,6.42-2.69,9.48-3.56,3.06-.86,5.92-1.21,8.6-1.03s5.12,1.04,7.33,2.6c2.21,1.55,4.09,3.98,5.66,7.3,1.56,3.32,2.19,6.23,1.88,8.73-.31,2.5-1.3,4.71-2.98,6.64-1.68,1.94-3.88,3.71-6.58,5.33-2.71,1.61-5.68,3.18-8.94,4.69l-29.97,13.87Z" fill="#fff"/>
    <path d="M332.89,215.59c-9.48,4.38-17.49,7.09-24.05,8.1-6.56,1.01-11.92.5-16.08-1.54-4.16-2.03-7.37-5.47-9.64-10.3-2.27-4.82-2.85-9.47-1.75-13.94s4.15-8.87,9.15-13.2c5-4.33,12.23-8.68,21.7-13.07,9.47-4.38,17.48-7.08,24.04-8.09s11.92-.5,16.08,1.54c4.16,2.04,7.37,5.47,9.64,10.29,2.27,4.83,2.86,9.48,1.76,13.95s-4.15,8.88-9.15,13.21-12.23,8.68-21.7,13.06ZM327.11,203.31c4.47-2.07,8.22-4.13,11.23-6.18,3-2.05,5.07-4.18,6.19-6.4,1.12-2.22,1.08-4.63-.14-7.22-1.22-2.58-3.04-4.16-5.48-4.74-2.44-.57-5.42-.38-8.93.59s-7.51,2.49-11.98,4.56-8.27,4.15-11.38,6.25-5.29,4.28-6.52,6.55c-1.23,2.28-1.24,4.71-.02,7.29,1.22,2.59,3.1,4.15,5.65,4.67,2.55.52,5.64.27,9.26-.74,3.62-1.02,7.66-2.57,12.14-4.63Z" fill="#fff"/>
    <path d="M358.12,151.98l67.78-31.35,5.77,12.28-67.78,31.35-5.77-12.28ZM389.24,151.51l16.29-7.53,14.07,29.93-16.29,7.53-14.07-29.93Z" fill="#fff"/>
  </g>
</svg>