<?xml version="1.0" encoding="UTF-8" standalone="no"?>
<!-- Created with Inkscape (http://www.inkscape.org/) -->

<svg
   width="29.700001cm"
   height="42cm"
   viewBox="0 0 297.00001 420"
   version="1.1"
   id="svg1"
   xml:space="preserve"
   sodipodi:docname="embrace_of_love.svg"
   inkscape:version="1.4 (e7c3feb1, 2024-10-09)"
   xmlns:inkscape="http://www.inkscape.org/namespaces/inkscape"
   xmlns:sodipodi="http://sodipodi.sourceforge.net/DTD/sodipodi-0.dtd"
   xmlns="http://www.w3.org/2000/svg"
   xmlns:svg="http://www.w3.org/2000/svg"><sodipodi:namedview
     id="namedview1"
     pagecolor="#ffffff"
     bordercolor="#000000"
     borderopacity="0.25"
     inkscape:showpageshadow="2"
     inkscape:pageopacity="0.0"
     inkscape:pagecheckerboard="0"
     inkscape:deskcolor="#d1d1d1"
     inkscape:document-units="cm"
     inkscape:zoom="0.27581788"
     inkscape:cx="25.379066"
     inkscape:cy="804.87894"
     inkscape:window-width="1440"
     inkscape:window-height="775"
     inkscape:window-x="0"
     inkscape:window-y="60"
     inkscape:window-maximized="0"
     inkscape:current-layer="layer1" /><defs
     id="defs1"><clipPath
       clipPathUnits="userSpaceOnUse"
       id="clipPath2"><rect
         style="fill:none;stroke:#000000;stroke-width:0.270738"
         id="rect2"
         width="111.17223"
         height="214.24582"
         x="-20.927053"
         y="45.777981" /></clipPath></defs><g
     inkscape:label="Layer 1"
     inkscape:groupmode="layer"
     id="layer1"><g
       id="g1"
       transform="translate(0,16.698941)"><g
         id="g5"
         style="fill:none;stroke:#605757;stroke-opacity:1"><path
           style="fill:none;stroke:#605757;stroke-opacity:1"
           d="m 106.96051,69.129534 c -3.77448,6.365513 -9.568452,0.349517 -11.971322,-3.4414 -1.15166,-1.816978 -2.37715,-4.386075 -0.46277,-6.185637 1.33755,-1.257338 2.69249,-1.047674 4.1043,-1.322873 m 57.515242,0.312855 c 5.66753,-11.587937 3.31388,-20.130617 2.71505,-21.899819 -0.81176,-2.398233 -1.91414,-4.818693 -3.53442,-6.8828 -1.32709,-1.690568 -2.77398,-3.165323 -4.37053,-4.692818 -1.27214,-1.217085 -2.45843,-2.337129 -3.9335,-3.412185 -1.26396,-0.921149 -2.53,-1.618961 -3.96628,-2.370545 -2.11106,-1.104691 -4.64498,-2.191357 -7.13982,-2.743779 -7.17294,-1.588294 -15.63633,-1.229153 -22.60944,0.838162 -5.3584,1.5886 -10.00227,3.823379 -13.753832,7.375492 -3.22102,3.049759 -4.81404,6.737639 -5.75977,10.637055 -0.31725,1.308093 -0.26655,2.222558 -0.33485,3.4414 -0.06271,1.119662 -0.39341,2.210223 -0.37371,3.4414 0.0643,4.023534 1.445,7.733717 3.06615,11.575619 2.332399,4.798585 6.394962,8.382934 10.016192,12.201327 m 54.61464,-16.130142 c 1.71239,-2.059353 1.85269,-2.34256 4.12635,-4.193106 4.57692,-3.388445 7.94106,-7.083064 13.84715,-8.251768 1.74598,-0.259198 3.24802,0.281462 4.90373,0.85241 l -1.73047,-3.249994 m -11.85733,6.542494 c 1.13014,-4.337105 3.81567,-7.043887 7.4941,-9.478408 4.08956,-2.643988 9.66227,-4.295984 14.6763,-5.314174 1.71741,-0.348753 3.34733,-0.644499 5.15654,-0.806998 1.43537,-0.128931 2.49126,-0.295478 3.96657,-0.323968 5.16981,-0.09987 11.47298,0.374646 15.86627,2.804348 1.74356,0.964266 2.86289,2.011901 4.36323,3.082183 1.45221,1.035949 2.94147,2.002849 4.29587,3.181668 5.91625,6.289647 11.89968,12.11205 16.94367,19.084123 4.78138,6.359784 6.64971,17.798223 5.16269,25.028372 -0.71231,3.4634 -2.96137,6.4147 -4.3198,9.69848 -1.26187,3.05041 -1.83386,6.8222 -2.34348,10.011347 -0.27986,1.751355 1.52243,2.989145 1.65728,4.692815 0.19213,2.42683 -1.18513,4.64382 -1.16484,6.8828 0.009,1.02178 0.10163,1.76652 0.47626,2.81569 1.0126,2.83589 0.22423,4.5032 -1.35833,7.19565 -1.93806,3.29727 -0.14182,6.06016 -2.02033,9.38564 -0.66442,1.17618 -1.45076,2.21862 -1.95878,3.4414 -1.25645,3.02419 -1.50505,4.13827 -4.51493,6.47261 -1.25307,0.97181 -3.79629,0.65595 -5.25659,1.29718 m -0.12221,4.11413 c -0.85083,-1.92822 1.06913,-6.68262 0.83459,-9.38109 -0.32921,-3.78751 -1.95535,-7.67349 -4.32803,-10.9499 -1.98875,-2.7463 -4.23234,-5.50796 -7.13953,-7.19566 M 185.30908,35.228522 c 1.16307,0.631675 1.58307,4.731808 1.03805,5.427825 -0.69639,-1.943518 -1.65863,-4.591416 -2.89196,-5.729533 m 3.93624,1.744524 c 0.8641,1.652583 1.59134,3.015791 0.62895,5.24672 m 3.29882,-4.289065 c 0.0554,1.361033 1.22657,5.276004 -1.74827,8.11504 m -0.37489,-8.911623 c 0.71112,2.120285 1.19904,5.149743 -0.17917,6.808098 m 5.75,0.128191 c -0.001,1.38539 -2.16841,3.495655 -1.78628,4.652552 0.39297,1.189779 2.35631,0.317628 3.22772,-0.01784 2.63255,-1.013378 14.85042,-4.745788 18.24622,-5.866519 m -21.38564,-0.82448 c 0.18211,1.81988 -0.92798,4.164164 -2.09867,5.176014 M 167.649,43.78831 c 2.68886,2.587733 2.7766,6.64961 2.7766,10.011346 m -3.56991,-9.385637 c 1.39822,1.741628 1.38447,2.363022 1.69954,4.379964 0.26612,1.703552 0.28374,3.42009 0.28374,5.318527 m -3.60546,-6.794047 c -0.31059,3.318809 -0.91366,4.788948 2.42327,6.654231 m -8.59486,-3.187329 c 5.40717,-4.797475 4.53137,6.977833 4.25486,9.27801 -1.3413,7.905461 -6.35316,6.313782 -6.24721,4.193688 m 11.91675,-8.920176 c -0.18254,2.19097 -3.16025,4.069779 -5.60589,4.560625 m 9.42515,-0.466469 c 3.93892,2.188492 8.67014,6.269006 11.50305,9.072782 l -1.62982,-3.749672 -7.95357,-6.59344 m -1.52299,3.460311 c 0,0 -0.46673,2.543616 -0.13224,3.748221 0.18375,0.661725 1.12387,1.726759 1.12387,1.726759 1.70395,1.643886 4.37252,1.947155 6.14818,2.346434 M 94.856829,65.411657 c -1.78656,2.962685 -6.479701,8.624102 -9.660731,11.53924 -8.047616,7.374961 -15.117446,13.516721 -18.858626,23.151233 -1.05635,2.72044 -1.25529,5.14789 -1.07093,7.82136 0.0857,1.24306 0.009,2.31326 1.09296,3.38347 1.82273,1.79972 5.19847,2.49188 7.6785,3.41944 2.41807,0.90438 5.22365,1.63718 7.933136,2.22229 7.531,1.62629 15.59318,2.4784 23.402742,2.55164 1.9323,0.0181 3.25916,0.29262 5.15654,0.31041 3.44925,0.0324 5.58191,-0.19072 8.72645,-0.29933 2.32155,-0.0802 3.84533,0.0734 5.94985,-0.0403 1.0208,-0.0551 1.78888,-0.19997 2.7766,-0.2571 4.39247,-0.254 9.75741,-0.99008 14.27965,-0.96487 1.60096,0.009 4.75948,-0.14054 6.29572,-0.0113 m 7.18214,-43.866935 c -0.22186,1.029609 0.16772,1.31983 0.81277,2.032537 0.94458,1.043666 3.86595,1.811976 5.54221,2.144576 2.17197,0.43094 3.87031,0.48719 5.94985,0.64603 1.82568,0.13943 3.91442,0.45607 5.5532,0.54459 1.12339,0.0607 1.97418,0.0284 3.17325,0.028 3.05654,0.42161 14.61586,-3.662123 17.19318,-5.781574 m -76.6917,-4.85553 c 4.76525,0 9.46301,-0.09551 14.6763,-1.251419 m 30.01102,-3.562793 c 0.45457,1.292015 4.71685,1.041772 5.71624,1.890513 m -60.65547,2.598058 c 0,2.597815 1.16927,8.930188 1.04663,11.373828 m 51.83194,16.27217 c -0.8106,-1.75698 -2.64785,-4.185803 -4.54761,-6.046243 m 2.12359,-29.400978 c 0.0214,2.034672 -3.14233,15.343488 -1.26287,21.266758 1.00167,3.156852 0.9186,7.339016 0.92107,10.250676 m -77.044006,9.080086 c 2.960485,-0.46705 3.555328,-2.723718 4.275582,-5.09664 M 181.26539,79.050009 c -0.92114,1.42503 -3.39666,4.736869 -2.93483,6.306189 0.58544,1.98944 9.69678,1.8501 13.55657,2.882934 m 13.98369,5.149229 c 6.36012,1.516033 6.21125,3.074052 12.78441,13.283719 0.82242,1.3433 2.0856,3.12999 2.04294,4.69281 -3.13603,9.29156 -14.85895,13.23345 -23.69656,12.60325 -4.15347,-0.40233 -4.5977,-1.04996 -8.67074,-1.84936 -2.88908,-0.56703 -10.21441,-3.59092 -12.68718,-3.76123 M 84.387917,96.990644 c 4.091137,-0.364225 2.473991,5.789566 0.488746,7.069716 -3.099349,1.99854 -1.257348,-9.449375 3.438845,-15.846692 3.239572,-4.413056 10.565517,-9.279209 13.091862,-9.91626 2.32741,-0.586866 12.87055,4.546498 13.88293,5.0436 2.87523,1.41182 5.4292,2.95959 8.3298,4.36839 2.16122,1.0497 4.27495,1.80961 6.74316,2.24838 1.90228,0.33813 3.62211,0.68032 5.5532,1.17488 7.4639,1.91154 16.37613,4.136845 23.97469,5.127942 l 8.55117,1.338695 18.2387,2.762535 c 2.06841,0.24758 4.16137,0.6495 5.5607,1.00066 3.61267,0.90656 6.93356,2.16943 10.31308,3.43246 M 86.405464,101.9974 c 2.3452,-0.37632 1.89459,-2.307379 2.76879,-3.873094 M 162.74984,85.677048 c 3.22491,-1.669858 6.63973,-3.182225 10.50835,-3.823888 m -69.18058,6.797783 c -1.0098,1.958381 -2.38271,1.680789 -2.98178,3.772285 -0.85602,2.988517 -0.6527,6.069952 -3.783848,8.186392 M 85.541048,87.587958 c -0.80027,-0.90179 -1.86601,-1.7073 -0.90902,-2.58346 1.26064,-1.15415 3.106862,-0.419903 5.157252,-0.419903 m 13.75005,4.552866 c 1.64256,1.453042 3.36672,1.070454 4.2145,0.327627 0.57317,3.375503 5.68349,5.602893 6.74316,7.634649 m 67.38984,52.710673 c -3.13253,-1.18061 -3.18285,-7.13185 -3.95781,-9.30155 M 94.970837,98.746545 c 3.465618,-1.013496 2.044348,5.889445 1.291112,5.984585 -2.738553,0.34592 -1.469573,-6.705897 -1.032811,-9.321812 0.19765,-1.183794 0.4577,-2.25987 0.813626,-3.273576 0.76373,-2.175169 1.968901,-4.063174 3.946254,-6.112054 1.658362,-1.71835 2.329922,-2.23976 5.405942,-2.45988 M 91.431406,102.7521 c 1.045534,0.1481 2.548231,-0.5512 3.164841,-2.52729 m -5.452339,-2.025942 c 4.244827,-0.891035 2.165336,7.093922 -0.03295,6.908932 -2.238589,-0.18838 1.527803,-12.975368 1.85504,-13.452732 2.089691,-3.048379 6.707923,-9.664354 11.474872,-9.947764 M 68.881462,178.31577 c -3.81056,2.76803 -7.872638,4.03626 -13.030578,4.58977 -2.95294,0.31689 -4.927052,0.0953 -7.139823,-1.07108 m 16.203831,-72.34669 c -3.65113,0.59599 -10.13724,3.43933 -13.486329,5.52662 -4.396489,2.74008 -8.009518,5.90863 -10.764521,9.80325 -4.200969,5.93872 -1.850879,11.82937 -4.731096,17.83271 -2.828794,5.89615 -8.026828,10.91598 -10.912056,16.89415 -2.810565,5.82349 -3.059952,11.98515 -5.529325,17.8327 -3.308055,7.83357 -6.808193,16.16053 -0.459094,23.7632 1.900679,2.27595 5.233841,1.29935 8.200027,1.85926 4.464447,0.8427 9.871106,3.29541 14.552692,1.75008 M 159.3624,145.89167 c -4.55513,-1.99481 -3.89839,4.426 -3.05507,6.32926 1.57359,3.55139 3.7101,-9.80096 5.04575,-13.30782 0.92657,-2.46548 0.62899,-3.07334 1.53604,-5.33554 1.62076,2.07747 1.59041,3.1999 1.58663,5.63138 -0.006,3.84645 -1.36789,12.90753 0.89269,14.33194 m -9.39123,-2.66825 c -3.70876,-1.99168 0.83582,-13.01513 0.72067,-17.27806 -0.0969,-3.58795 -3.52985,-5.18711 -5.36657,-8.46409 -2.71719,-5.3393 -1.346,-8.52752 -7.48172,-10.63701 m -8.32979,16.2684 -1.18997,28.46976 m 42.04562,-30.34689 c 0.0724,2.77127 1.25965,5.27276 1.55264,8.13422 -0.28312,4.15094 -0.13562,17.25285 -3.04293,20.21881 -1.18624,-0.22071 -2.60854,-10.34876 2.02869,-7.73829 m -3.17054,4.15222 c -1.9762,0.0482 -2.48721,-3.04788 -2.52281,-5.68283 -0.0292,-2.15907 0.39611,-4.43107 0.39511,-6.56995 -4e-4,-0.78009 0.0604,-1.38249 -0.0747,-2.18998 -0.45685,-2.73118 -1.48297,-2.60024 -1.75667,-4.93768 0.84317,7.99512 -0.96755,22.39574 -3.22273,21.95057 0,0 -0.86747,-1.0141 -1.18011,-2.1623 -0.89244,-3.27757 1.63773,-6.02909 3.73627,-5.0014 M 53.411852,140.14751 c 2.02306,5.6759 3.1601,11.54986 5.55319,17.207 1.25389,2.9641 2.80606,7.07057 3.56991,9.69849 M 210.88459,142.02464 c -4.65432,8.28159 -6.56018,18.20268 -12.03741,26.27978 -2.93996,4.33546 -6.21408,8.2643 -10.17537,12.35775 -2.80124,2.4716 -5.16225,5.3181 -7.45934,7.9778 -5.75525,6.66368 -12.9894,15.08706 -13.52614,23.46409 -0.20898,3.26141 2.37995,8.51295 3.8555,11.57562 0.63812,1.32451 2.80516,3.65068 1.79594,4.97768 -2.06714,2.71796 -8.87587,5.61847 -12.03528,7.72119 -6.69349,4.5207 -10.65326,10.6604 -15.46959,17.02228 -0.73482,-0.12557 -1.42554,-0.1434 -2.77723,-0.0522 -5.13891,0.34696 -9.77392,0.866 -15.07233,1.48465 -2.66668,0.31136 -5.16787,0.44465 -7.13982,0.44465 0,-1.94492 0.001,-4.45024 0,-6.8828 -4.8e-4,-0.83572 0.56206,-3.07899 -0.53674,-3.35962 -0.5885,-0.15029 -1.25635,-0.0211 -3.03317,-0.0818 0,0 -1.0708,9.91276 0.15126,11.58749 0.76699,1.0511 3.11702,1.54268 3.58138,-1.55287 m 67.38421,-73.77636 c 2.41539,2.17919 5.06464,2.27496 7.69079,4.68331 5.0955,4.54534 8.91796,10.65231 11.23343,16.51029 1.55251,3.92775 1.98329,11.43245 1.98329,12.51415 0,3.11556 0.0492,6.15016 -1.53618,9.07278 -2.13111,3.92856 -4.27084,8.62825 -7.27201,12.20133 -1.44519,1.72062 -2.57468,3.11121 -3.46275,5.00567 -1.45028,3.09387 -3.55757,6.14512 -5.57891,9.07279 -5.11081,6.65116 -9.35844,12.61289 -15.07267,18.7713 1.4451,1.54036 1.94242,3.33565 1.98174,5.94423 0.0631,4.18317 -0.11331,8.35401 0.51146,12.51419 0.37177,2.47564 0.97285,4.36018 -0.79181,6.56994 -3.0494,3.81849 -9.82665,9.83098 -15.58438,11.18791 -3.79157,0.89362 -8.44401,-0.51553 -11.10639,-1.17656 m 31.92068,-43.10341 c 0.40308,0.95719 0.88232,2.08453 1.39143,3.058 0.7922,1.5147 1.14237,3.05499 1.42505,4.69281 0.38605,2.23688 0.0861,2.64785 -0.16066,4.69282 -0.12357,1.02423 -0.053,1.75851 -0.0689,2.81569 -0.0163,1.08323 -0.20288,1.78097 -0.32776,2.81569 -0.0966,0.80047 -0.067,1.41182 -0.0673,2.18999 -4.8e-4,0.95131 0,1.81067 0,2.81569 0,2.35126 0.12274,4.07879 -0.0156,6.56994 -0.28597,5.15065 -1.0757,12.34515 -3.29416,17.83271 -1.86911,4.62339 -2.36668,9.47894 -2.96941,14.39131 -0.61295,4.99582 -1.57157,10.33868 -3.49462,15.01702 -1.04316,2.53774 0.0681,5.79346 -0.17847,8.44707 -0.1395,1.50107 -1.03503,3.12924 -1.01765,4.69282 0.0166,1.48965 0.90139,2.2832 1.29558,3.75426 0.52894,1.97397 -0.55475,4.73811 -1.03541,6.56994 m 26.01989,-170.1713 c 1.88961,0.32254 5.74385,-2.02058 6.95119,-2.90297 1.44842,-1.0857 1.32826,-3.88379 0.60056,-5.25279 -1.6733,-3.14795 -4.48389,-5.91825 -6.25713,-9.07279 -1.18275,-2.10405 -1.70521,-4.12636 -3.11849,-5.63138 m 24.68412,-26.82962 c 5.54874,4.38906 9.18031,12.81153 11.60659,19.00826 2.61584,6.68093 2.59497,13.7702 3.44232,20.6484 0.55979,4.54397 2.27729,8.59494 1.88044,13.13989 -0.25033,2.867 -1.05488,6.0226 -2.44332,8.75871 -0.92385,1.8206 -2.90046,2.42233 -5.05766,3.05808 -5.09742,1.50225 -9.75722,3.8133 -15.07296,4.67517 -1.7823,0.28899 -7.92093,0.0774 -8.84052,0.95527 m -24.87531,-66.56539 c -4.05505,-1.01396 -2.68963,4.35967 -2.22505,6.65073 0.12012,0.59238 0.6001,1.43577 1.19973,1.35967 0.71794,-0.0911 0.98448,-1.93503 0.98448,-1.93503 0.72232,-2.63759 0.10206,-11.62683 -2.99442,-21.40526 -2.0809,-7.83988 -4.10263,-10.91755 -10.84773,-15.32986 -4.0147,-3.16651 -8.26104,-6.77468 -13.48633,-8.66334 -4.71989,-1.70596 -10.09892,-2.44265 -15.07296,-3.29082 -3.77453,-0.64362 -7.20717,-1.38405 -11.10639,-1.99926 -10.37501,-1.636973 -26.96284,-6.086161 -29.74926,-6.382122 M 75.624632,161.73448 c 7.914556,1.21061 12.340126,-3.18874 18.642866,-6.25709 m 60.827602,86.2989 c -1.19284,0.0677 -2.23722,-0.0315 -3.70903,0.0953 -3.81302,0.33397 -7.48868,0.77938 -11.10639,0.90449 -8.5915,0.2972 -17.43629,0.61341 -26.17935,0.61341 -3.85442,0 -10.52557,-0.6446 -14.03636,0.17389 m 21.17619,-62.11909 c -0.70543,6.99073 -5.37293,13.26967 -11.50305,18.14557 m -34.22159,29.17461 c -0.57661,-1.29052 1.693872,-4.58838 2.386832,-5.71052 2.23633,-3.62128 3.514956,-7.23071 4.001456,-11.26276 0.79551,-6.5929 -1.494796,-14.03576 -4.752226,-20.0227 -2.568572,-4.99046 -5.126111,-8.93054 -7.9258,-13.7656 -2.079247,-3.59085 -4.67472,-7.54967 -6.69083,-10.94991 -2.33893,2.53929 -10.193908,11.30003 -13.851774,14.68473 l -11.137603,11.90791 m 35.17181,34.69304 c 1.551137,-0.48815 10.408323,2.6927 12.427003,3.60919 11.240581,5.47257 16.645252,13.65463 24.149912,23.27732 2.01417,0.57493 5.27344,-0.93768 7.80878,-0.15695 m 18.81338,-71.7468 c 6.8e-4,5.23006 1.969,10.27631 5.94985,14.39131 m -22.80912,69.91593 c 2.64427,0 4.87827,0.0843 7.33951,-0.13367 4.71121,-0.41715 11.24477,-0.94726 14.6763,-0.95426 -0.62022,3.31213 -3.67184,7.83523 -5.65115,10.94991 -2.55043,4.01334 -5.37521,8.19173 -7.93343,12.20133 -1.14029,1.78726 -2.1437,3.68757 -3.71348,5.31394 -1.39711,1.44745 -3.21542,2.42967 -5.11302,3.75887 -4.35942,2.79731 -10.0862,4.69823 -11.91222,9.07281 -1.30739,3.13214 0.003,6.6005 1.93675,9.38564 0.85258,1.22801 2.17879,2.25299 2.15039,3.75425 -0.10144,5.36199 -4.5097,10.81701 -6.19467,15.95559 -1.13811,3.47073 -0.16918,7.13057 -0.0674,10.63705 0.0335,4.8194 -0.10711,7.95664 4.36403,10.88739 1.50647,0.77648 4.38259,0.49239 4.39589,-0.71506 -0.20484,-4.33195 -0.89226,-8.46429 -0.14674,-12.35221 m 5.60681,-46.47686 c -2.20762,-1.74101 -19.568812,-14.46556 -21.385532,-15.91952 -3.52125,-2.81818 -7.42783,-5.76887 -11.07487,-8.63154 -1.66221,-1.30469 -3.11065,-2.21614 -4.75988,-3.45369 -5.267736,-3.95285 -11.485466,-7.49175 -16.653776,-11.56814 -8.08079,-6.37357 -12.90582,-14.13325 -19.942097,-20.95667 -4.237599,-4.10938 -10.259234,-7.55258 -11.280533,-13.13989 -0.828007,-4.52982 0.580968,-8.99732 2.8271,-13.13989 2.967413,-4.49934 6.14923,-8.26559 9.360316,-12.51418 3.082346,-3.51937 6.573744,-7.39776 10.699614,-10.19023 4.659894,-3.1683 9.981819,-5.09069 15.082256,-7.41966 m 76.148802,38.57114 c -2.97623,4.40792 -6.0847,9.55895 -7.53648,14.39131 M 98.630718,223.67968 c 3.036512,2.39659 6.345052,5.68592 8.726452,8.44707 m -13.285973,5.54141 c 3.60114,-0.83957 11.128883,-0.53574 15.665933,-0.53574 3.58448,0 7.57676,-0.31285 11.10639,-0.31285 1.11298,0 2.07354,0.0314 3.17325,-0.028 1.10892,-0.0599 2.05035,-0.23377 3.17326,-0.27257 2.4577,-0.0849 5.46536,-0.0123 7.93313,-0.0123 h 3.56992 6.74316 c 4.38647,0 12.58055,-0.43352 15.39603,0.22289 M 145.8329,253.4008 c -0.89233,3.04247 -3.68298,9.91108 -4.72958,13.1018 m -31.77916,-11.23831 c 1.71876,1.8717 5.12879,5.54763 6.44974,7.52215 1.10421,1.65058 2.19705,3.14096 3.68972,5.62163 2.42948,3.31785 4.71549,7.03609 7.38701,10.02115 1.66657,1.86216 2.71506,3.06477 4.306,4.69282 m -66.93754,-24.634 c -0.0412,1.56699 -1.187258,5.58518 -1.761858,7.7398 -0.91235,3.42116 -1.03122,6.9093 -1.90707,10.3242 -0.7455,2.9067 -2.3059,5.82153 -2.70622,8.75992 -0.81202,5.96055 0.55676,12.16501 0.70304,18.14557 0.18944,7.74544 -0.39801,16.40397 -1.67998,24.0898 -0.56727,3.40099 -2.38229,6.60401 -2.9437,10.01134 -0.65568,3.97951 -0.0849,7.59482 -1.346365,11.57562 -1.314144,4.14712 -1.706418,8.57051 -2.338324,12.51419 m 19.832819,-94.48202 9.91642,5.94424 m 38.206498,74.57305 c -0.64867,2.59267 1.87269,6.75221 -2.21926,6.43495 m 60.21739,-84.8668 -9.89598,9.49018 -18.54014,17.36343 c -7.08609,5.74466 -22.86828,41.17004 -23.08536,48.09675 M 64.121582,269.6693 c 7.65557,4.07348 15.47078,9.00037 24.989376,10.01134 m -21.022806,-2.81569 c 2.58897,2.65789 6.31435,4.26845 9.91642,5.94424 m -13.48633,-3.4414 c 3.70139,2.91941 7.39272,5.6355 11.8997,7.82136 m 17.444991,-6.93741 c 0,2.23772 -0.183625,9.05063 -1.970775,11.63 -0.72192,1.04195 -2.03415,1.82504 -3.17786,2.58006 -2.15111,1.4201 -4.39019,2.81527 -6.74316,4.02006 -2.836346,1.45226 -4.877136,-0.18691 -7.536476,-1.18119 -4.96318,-1.85559 -11.796811,-3.55398 -16.694151,-5.61324 m 38.372378,-9.80755 c -0.017,1.62056 0.642159,8.38809 -1.061891,10.27462 -1.88368,2.08541 -6.64208,4.25439 -9.04597,6.302 -1.28741,1.09659 -2.55788,2.9654 -4.44617,3.44866 -1.672086,0.42792 -4.376876,-0.66219 -5.934226,-1.14281 -4.09019,-1.26226 -7.54963,-3.29154 -11.50305,-4.74014 -2.64649,-0.96968 -4.461224,-1.56259 -6.266524,-2.07996 m 92.969282,11.44742 c 2.42367,1.42981 4.1209,2.54203 7.40347,2.5489 2.54076,-0.33207 4.51518,0.2105 6.6446,-0.62915 2.09973,-0.82796 3.86522,-2.32674 5.55319,-3.56693 3.9948,-2.93504 10.15194,-6.84587 11.48407,-11.23477 1.0939,-3.60401 -0.55606,-8.55095 -0.75874,-12.20133 -0.23034,-4.1483 0.21706,-7.96393 -1.99888,-11.88847 m -70.94304,47.98023 c -1.14296,3.17663 -3.98651,9.94297 -4.78626,13.65213 -1.69886,7.87903 -7.108762,14.93876 -10.795432,22.21267 -1.44394,2.84892 -1.18303,6.11128 -2.72305,9.07278 m 31.408912,-15.44718 c -0.69593,3.16009 -0.0318,4.65367 -0.33271,5.5601 -0.46051,1.38723 -2.63858,0.9091 -2.8157,-1.58052 m 0.13061,2.84063 c -0.8566,-0.62377 -2.05203,-0.13133 -2.43076,0.58859 m 18.53855,-6.14159 c 0.15286,2.76554 1.756,4.60147 1.7683,7.28885 0.0105,2.29187 -0.46132,5.20085 0.14166,7.20397 m -20.45132,-15.24026 c -0.28479,1.77018 -0.44235,3.65552 -0.16308,5.74971 l 0.18059,1.35417 c 0.26683,2.00084 -0.71369,2.3273 -2.57824,2.4661 m -0.0503,0.81708 c -0.29006,0.61959 -2.43983,0.91795 -2.87764,0.28446 -2.1201,-3.06772 0.62087,-4.46286 2.53725,-3.8272 m 0.1767,1.28678 c 0.42633,-0.81842 1.66818,-1.45422 2.95132,-0.93909 m 12.47777,-10.42065 c 5.71297,0.31246 3.68848,3.08004 1.59799,2.86109 -1.17827,-0.12341 -2.70352,-0.27229 -3.45249,-1.07281 m -5.58068,6.03039 c -0.62733,-0.7384 -1.7442,-0.50568 -2.28085,0.29317 m 11.25017,-9.62872 c -0.79984,1.25275 -4.2252,2.78279 -3.60917,4.66358 1.02798,3.13851 5.51324,2.6414 8.20206,0.55113 2.06341,-1.6041 2.82739,-4.19306 4.17811,-6.19022 1.46175,-2.1613 3.68423,-3.87841 4.61569,-6.25709 3.00039,-7.6623 -4.74181,-17.07754 3.57737,-24.99338 0,0 3.5037,-2.73523 4.17337,-4.72779 0.59967,-1.78432 0.8625,-3.99189 -0.42174,-5.63139 -1.05551,-1.34751 -1.66517,-1.75622 -2.94985,-2.8157 m -24.21739,53.09464 c -0.68413,-0.39897 -1.84406,-0.36072 -2.58132,0.59903 m 3.63312,-5.85219 c 0.069,1.56185 -0.90478,5.36914 -1.12901,6.00697 -0.65246,1.49651 -2.26147,1.09216 -2.54455,-0.70111 m 5.99851,-8.37406 c -0.52605,0.72833 -1.73531,1.48408 -2.31966,3.19161 m -0.0942,0.0676 c 0.1782,0.34589 -0.0498,1.93002 1.8595,1.88896 m 55.84921,-213.38076 c 1.88678,0.62584 5.25521,1.61599 6.20505,-0.58351 -2.47757,-0.86956 -5.27065,-2.08702 -7.44453,-3.32101 M 96.292332,81.016694 c -2.25705,1.08529 -6.675384,3.418464 -8.603904,5.060344 -3.14312,2.67595 -6.869697,8.111992 -8.450384,11.452944 0,0 -1.876687,4.545218 -1.147247,5.077088 1.028751,0.75011 3.708023,-2.38625 3.350523,-4.119873 -0.158681,-0.769494 -2.089286,-1.091144 -2.089286,-1.091144 M 214.43249,42.572101 c 0,0 -12.30487,5.313649 -17.53586,7.282583 -5.70305,2.146616 -2.81749,11.93451 -3.05787,18.023431 -0.1868,4.731797 0.25584,9.619165 -1.51927,14.391313 -1.12982,3.037376 -0.72366,7.375114 1.65042,9.580993 3.67201,3.411859 10.09274,1.241304 14.96636,1.458859"
           id="path2"
           sodipodi:nodetypes="csscccsscssssssscccsscccsssssssssssscsssssccsscccccccccccscccccccsccsascccccccccccccacccssscssscscccccsssscccccccccccscccccscssssccsccsassssscccsccccccsccscccccssssssccccssccccccccccscccscssccssscccccccccsccsccccacsssscccccccscccccssccsccscsassssscssssccssssscsssssssscccsascccccccssssccsccscsccccsccccssssccccscccccscssscssccsscscsssssssssccccccssssscsccccscsccsssssssccccccccccccccccssssccssssscccssssccssscscccccssssssccccsccccccsccacccccssac" /><path
           style="fill:none;stroke:#605757;stroke-width:0.407998;stroke-dasharray:none;stroke-opacity:1"
           d="m 157.87254,65.715654 c 2.70915,1.024424 1.70446,2.727615 2.8639,5.459946 -1.9532,-0.01988 -2.58536,0.02623 -4.4878,-0.955534"
           id="path3"
           sodipodi:nodetypes="ccc" /><path
           style="fill:none;stroke:#605757;stroke-width:0.407998;stroke-dasharray:none;stroke-opacity:1"
           d="m 156.67021,66.907174 c 1.0423,-0.254256 1.66004,3.607517 3.91185,4.070514"
           id="path4"
           sodipodi:nodetypes="cc" /></g><path
         style="fill:none;stroke:#605757;stroke-width:0.297;stroke-dasharray:none;stroke-opacity:1"
         d="m 186.75678,131.04973 4.27412,1.82845 c 0.57711,0.24688 0.99084,-0.0372 0.41601,-0.55225 -0.96323,-0.86309 -3.56415,-2.29649 -4.50273,-2.3949 -1.859,-0.19494 -2.05062,0.23923 -2.05062,0.23923 z"
         id="path5"
         sodipodi:nodetypes="cssscc" /><path
         style="fill:none;stroke:#605757;stroke-width:0.297;stroke-dasharray:none;stroke-opacity:1"
         d="m 83.938205,86.035094 c -3.21331,-3.439335 1.502228,-2.650022 5.257874,-1.846514"
         id="path7"
         sodipodi:nodetypes="cc" /><path
         d="m 64.544167,86.936477 m 2.017547,5.006756"
         style="fill:none;stroke:#605757;stroke-opacity:1"
         id="path1" /><path
         d="m 102.90875,-1.698941 m 2.01755,5.006756"
         style="fill:none;stroke:#605757;stroke-opacity:1"
         id="path1-0" /></g></g><plotdata
     application="axidraw"
     model="2"
     layer="-2"
     node="0"
     last_path="0"
     node_after_path="0"
     last_known_x="0"
     last_known_y="0"
     paused_x="0"
     paused_y="0"
     randseed="0"
     row="0"
     id="1739139159" /></svg>
