<?xml version="1.0" encoding="UTF-8" standalone="no"?>
<!-- Created with Inkscape (http://www.inkscape.org/) -->

<svg
   width="29.700001cm"
   height="42cm"
   viewBox="0 0 297.00001 420"
   version="1.1"
   id="svg1"
   xml:space="preserve"
   inkscape:version="1.4 (e7c3feb1, 2024-10-09)"
   sodipodi:docname="locked_in.svg"
   xmlns:inkscape="http://www.inkscape.org/namespaces/inkscape"
   xmlns:sodipodi="http://sodipodi.sourceforge.net/DTD/sodipodi-0.dtd"
   xmlns="http://www.w3.org/2000/svg"
   xmlns:svg="http://www.w3.org/2000/svg"><sodipodi:namedview
     id="namedview1"
     pagecolor="#ffffff"
     bordercolor="#000000"
     borderopacity="0.25"
     inkscape:showpageshadow="2"
     inkscape:pageopacity="0.0"
     inkscape:pagecheckerboard="0"
     inkscape:deskcolor="#d1d1d1"
     inkscape:document-units="cm"
     inkscape:zoom="0.21334428"
     inkscape:cx="928.07739"
     inkscape:cy="850.73761"
     inkscape:window-width="1440"
     inkscape:window-height="900"
     inkscape:window-x="0"
     inkscape:window-y="0"
     inkscape:window-maximized="0"
     inkscape:current-layer="layer1" /><defs
     id="defs1"><clipPath
       clipPathUnits="userSpaceOnUse"
       id="clipPath1"><rect
         style="fill:none;stroke:#605757;stroke-width:0.297"
         id="rect2"
         width="268.14429"
         height="248.05281"
         x="36.31926"
         y="89.639015" /></clipPath><clipPath
       clipPathUnits="userSpaceOnUse"
       id="clipPath3"><rect
         style="fill:none;stroke:#605757;stroke-width:0.253917"
         id="rect4"
         width="248.65024"
         height="199.35016"
         x="51.930676"
         y="97.081123" /></clipPath></defs><g
     inkscape:label="Layer 1"
     inkscape:groupmode="layer"
     id="layer1"><path
       style="fill:none;stroke:#5d5454"
       d="m 109.34818,81.085174 c 0.17004,2.625192 -0.18092,11.374865 0.19677,13.999075 1.6165,11.231551 4.12001,21.752281 7.62713,31.588051 3.05264,8.56111 6.69147,17.07451 9.29641,26.01369 1.71433,5.88296 3.46087,12.82959 5.13569,18.8909 1.66203,6.01506 3.71687,11.81473 5.80543,17.34246 2.51896,6.66683 5.03829,13.81251 8.03493,19.81995 1.11167,2.22856 2.90038,7.39494 4.25851,9.2686 M 47.585491,32.837202 c 0.616116,4.078967 1.868371,8.859946 2.758143,13.006845 1.859811,8.667904 5.584814,24.354882 3.575553,27.881539 -0.511634,0.89802 -0.863644,1.759597 -0.943403,2.71405 -0.648744,7.763381 0.756563,22.813601 3.903163,23.04309 14.777839,-3.436915 35.748288,-6.626982 46.975243,-17.691609 1.81215,-1.785951 2.77469,-5.072672 2.71499,-8.694631 -0.0583,-3.538716 -1.6938,-6.550791 -3.39846,-7.915651 -4.312866,-3.45318 -10.362815,-0.159492 -13.378067,0.570509 M 215.88046,32.837202 c -0.2453,1.311972 -0.31014,2.647648 -0.4471,4.025928 -0.58435,5.880836 -1.12956,11.712149 -1.825,17.652148 -1.7452,14.906172 -4.43938,29.314093 -7.51154,43.356152 -0.79673,7.28241 -5.07439,18.31751 -5.89615,25.45637 m 70.0678,-81.819368 c -0.39854,2.752856 -1.14726,4.939263 -2.18871,8.051857 -2.00365,5.988349 -4.11443,12.014804 -6.22904,17.961834 -4.59969,12.935927 -9.63459,25.550409 -14.78341,37.781787 -8.11883,18.47053 -13.22244,57.30635 -14.50672,59.9345 M 53.970157,73.773566 c 0.66972,0.973133 3.270574,0.651605 4.219285,0.533955 7.356472,-0.912483 23.49812,-6.543066 31.640822,-8.696332 1.239258,-0.327681 2.682086,-0.980398 3.933724,-1.433738 4.100671,-1.565031 7.925562,-3.630007 11.972202,-5.32656 M 91.520389,89.798389 C 91.106401,85.775258 90.516864,79.852323 90.100403,74.64492 89.978195,73.116824 89.597403,69.478496 89.51789,68.141988 89.44476,66.912692 89.48836,66.409489 89.4882,65.973689 m -3.59166,1.238748 c 0.158327,1.478232 0.302008,3.085413 0.572867,5.264675 0.446223,3.590205 0.83999,7.209253 1.272579,10.839038 0.352961,2.961683 0.716069,4.834585 0.720026,7.432484 M 71.358865,71.857739 c -0.514841,3.370204 -0.854822,6.608547 -0.631382,10.033586 m 0.292715,4.30563 c -0.07721,1.76889 0.535828,8.538418 1.03697,9.832963 M 67.87054,83.696568 c -1.211069,4.944164 6.454925,1.999694 6.268902,-0.689878 -0.180136,-2.604524 -5.694106,-1.008266 -6.268902,0.689878 z m 23.615815,6.137761 c 5.737014,-2.928804 16.761545,-3.196768 18.217075,-9.924734 0.50824,-2.935824 0.0747,-8.702607 -0.29191,-11.768098 -0.29641,-2.478288 -0.85115,-5.45358 -1.75307,-7.375135 -0.49707,-1.058991 -1.34774,-1.385803 -1.64869,-2.60081 -0.40018,-1.615724 -0.46226,-3.917734 -0.70102,-5.818082 -0.73261,-5.831048 -1.74311,-14.641094 -2.82215,-19.819955 M 53.888133,93.594026 c -1.863788,0.0093 -3.625713,1.188361 -5.447485,2.947626 -2.662006,2.57068 -4.764475,6.101568 -6.462242,10.620378 -0.521033,1.38679 -1.058951,3.16775 -1.442556,4.64531 -0.328403,1.26494 -0.767966,2.91163 -0.921403,4.33538 -0.129672,1.20325 0.0616,1.82335 0.626717,2.31978 0.647063,0.56842 6.660201,5.36074 6.660201,5.36074 l 5.986102,3.98124 3.93293,2.234 1.026982,0.35006 m -13.864018,-9.25891 c 0.164883,-0.20943 0.3148,-1.17805 0.499147,-1.89125 0.256683,-0.99306 0.554923,-2.1342 0.857798,-3.09543 1.078238,-3.42194 2.447972,-6.47405 4.297563,-8.74982 2.305073,-2.83622 5.156379,-6.01462 6.973066,-6.01462 m 25.522913,15.07413 c 1.931328,-5.92874 4.491831,-9.71382 7.867448,-12.93899 1.947445,-1.86065 4.259084,-4.575479 6.157133,-5.64222 m -39.545023,1.370722 c 0.121196,1.736468 0.98418,9.509148 1.161391,11.945808 0.376533,5.17743 0.41595,10.57351 0.414645,15.79403 -3.03e-4,1.19323 -0.0757,2.29615 -0.148066,3.40655 -0.125747,1.92965 0.03887,3.84474 -0.03827,5.88405 -0.237099,6.26921 -0.5948,12.70107 -1.295544,18.8909 -0.422401,3.73115 -0.912008,7.74086 -1.349514,11.45841 -0.09431,0.80134 -0.182483,1.38631 -0.297322,2.16781 -0.142251,0.96805 -0.177399,1.74698 -0.314222,2.78718 -0.811659,6.17083 -1.736256,12.61906 -2.273683,18.89089 -1.133946,12.03206 -1.585379,22.28224 1.23416,34.06555 1.076943,4.3053 2.449245,6.88762 4.111364,10.21967 0.994694,1.99406 1.976904,4.25025 2.936565,5.57436 M 39.654004,116.15546 c -0.797931,2.32462 -1.496023,7.20548 -2.173228,9.89747 -1.340526,5.32875 -2.508261,10.9123 -3.548903,16.4134 -0.635167,3.35767 -1.335771,6.79103 -0.471918,10.21966 2.183089,8.66471 9.991766,11.63785 14.63863,13.74188 1.887986,0.85486 5.445678,1.8927 6.841259,2.36184 M 219.30493,112.35656 c -0.85892,2.79954 -2.28337,6.78109 -3.76269,8.98091 m -166.075403,9.19734 c 3.388697,-1.10636 4.85829,6.55321 2.851843,10.67939 -0.683249,1.40508 -2.8318,3.01013 -3.168571,4.67207 -0.729364,3.5994 0.399619,10.21668 -0.763169,10.89113 -1.316208,0.76343 -6.157313,-4.89554 -6.220612,-5.98202 -0.131583,-2.25865 2.745345,-5.59861 3.534518,-7.0903 1.95587,-3.69697 -0.194926,-11.87709 3.765991,-13.17027 m 105.182473,82.00674 c 0,0 0.65664,-3.34074 2.05431,-5.57194 1.40466,-2.24236 2.74126,-4.41051 4.10476,-6.64441 0.62923,-1.03093 1.05122,-1.90326 1.71031,-2.95588 1.53116,-2.44533 3.10683,-5.34131 4.61534,-8.14028 0.43564,-0.8083 0.78762,-1.61044 1.22877,-2.38908 0.45349,-0.80041 0.87804,-1.41614 1.33671,-2.25742 0.67216,-1.23288 1.19281,-2.44749 1.88452,-3.71505 1.19828,-2.19586 2.28545,-4.11679 3.41929,-6.19373 0.84486,-1.54762 1.53571,-3.02525 2.40183,-4.6465 0.81309,-1.52197 1.56133,-2.83808 2.38772,-4.33442 1.25647,-2.27509 14.49412,-26.94698 14.83175,-28.0737 M 81.107659,135.03385 c 0.818068,5.54119 2.087829,11.41618 3.486353,16.72308 3.085916,11.70994 8.261278,22.24825 13.616795,30.57057 4.983043,7.7435 10.754523,12.40766 16.419023,18.09328 2.15291,2.16095 4.97207,4.51664 7.01229,6.4604 m 75.59621,34.33688 c -0.40327,1.32181 0.77162,-0.65174 -2.77917,12.11614 -1.13809,4.09247 -2.46845,7.89966 -3.2269,12.38748 -0.95619,5.6579 -1.12219,11.65604 -1.88385,17.34246 -0.48811,3.64411 -1.49193,7.87686 -1.73527,11.45244 -0.0971,1.42629 -0.14247,1.45911 -0.13808,1.97513 M 77.173936,164.14441 c 0.998369,1.43364 2.108257,2.80126 3.078566,4.38818 3.827487,6.25976 6.99729,14.93433 8.774737,23.79331 0.662684,3.30288 1.373565,6.74819 1.481076,10.21967 0.09993,3.22684 0.210136,6.73208 0.377169,9.90998 0.0541,1.02943 0.134641,1.76726 0.141343,2.78718 0.01779,2.70779 6.58e-4,4.60137 6.58e-4,7.12279 M 247.04158,192.67906 c -1.13801,2.75444 -4.40928,-0.14438 -5.92948,1.10892 -2.00774,1.65525 -2.61101,4.09815 -5.11796,4.71637 -2.83597,0.69935 -3.91734,-3.80645 -2.57759,-7.50691 0.56554,-1.56204 1.34214,-2.10557 2.44152,-2.46293 0.95772,-0.31132 2.11592,0.061 2.98199,0.48489 0.69932,0.3423 0.71742,-1.52006 0.98773,-2.42593 1.92373,-6.44693 9.52896,0.48188 7.21379,6.08559 z m -69.76915,46.14724 c 0,0 3.44409,3.79944 3.26258,4.60556 -0.22342,0.99227 -0.52711,2.73475 -0.74457,3.70861 -0.49953,2.23706 -1.16096,5.11123 -1.67376,7.43248 -1.11646,5.05377 -2.4092,10.205 -3.11274,15.48434 -0.40445,3.03499 -0.89468,5.93554 -1.17242,8.98092 -0.17588,1.92862 -0.63281,5.82523 -0.838,7.74194 -0.0889,0.83055 -0.41726,3.08019 -0.78906,3.49066 m -11.26298,-49.30985 c -0.4158,3.11646 -0.0283,10.08912 -0.14176,11.75387 -0.52935,8.38823 -1.93084,17.04646 -3.41204,25.08463 -0.60158,3.26464 -1.19601,7.53728 -2.73914,9.78908 -1.46452,2.13711 -3.37069,2.03822 -5.12831,2.34125 -0.82027,0.14146 -1.62741,0.30577 -2.39444,0.24497 -1.15772,-0.0918 -2.66836,-0.44283 -3.7627,-0.79357 -5.05945,-2.11978 -11.9908,-3.69737 -11.9714,-10.34331 -0.14887,-14.35858 7.70464,-19.22928 11.11631,-19.49777 1.91508,-0.15068 4.15281,1.60008 5.81507,1.84595 m 32.81376,-32.07741 c -0.54371,0.82891 -0.52588,-0.13017 -0.82295,0.79904 -0.38735,1.21165 -1.07296,2.83595 -1.54904,4.02593 -0.67577,1.68914 -1.2187,3.63875 -1.69831,5.13327 -0.3073,0.95757 -0.63347,1.55449 -0.93276,2.6089 -1.30731,4.6058 -2.33521,9.76663 -3.47618,14.55528 -0.86643,3.6364 -1.7789,7.6542 -3.11369,10.83428 -1.1919,1.62972 -1.29924,3.02779 -1.23222,4.95975 0.0226,1.6888 -0.14898,4.29804 -0.14898,6.19374 -1.57141,8.94768 4.39908,10.67076 9.74877,16.67043 0.73971,0.88101 1.59743,2.55545 2.39444,2.90547 0.76706,0.33687 1.68069,-0.72847 2.39444,-1.1439 1.51043,-0.87912 3.27113,-0.78019 5.4905,-0.52928 2.5913,0.83185 3.75602,1.44223 5.28449,3.02911 2.25777,2.34397 3.8543,6.58504 4.22444,11.27559 0.10122,1.28264 -0.0335,2.57677 0.1445,3.71624 0.1951,1.249 0.60519,1.93978 0.38524,3.40512 -0.54335,3.61977 -9.82235,4.55183 -11.59544,0.62081 1.58853,-1.53694 5.92545,-1.6319 8.20951,-2.20818 1.16621,-0.29426 2.33105,-0.84289 3.1052,-1.38272 M 168.33376,198.20995 c -13.53086,15.04923 -12.57857,13.17051 -16.41907,17.33794 -1.40579,1.52545 -3.10421,3.17338 -4.44682,5.03264 -2.79331,3.86821 -5.08508,9.17813 -6.78794,14.79185 -0.81643,2.69146 -1.55757,5.58582 -2.25351,8.36154 -0.22515,0.89799 -0.48023,1.56571 -0.6973,2.4775 -2.83328,11.90118 0.42823,14.09727 0.16979,15.4806 M 51.577715,206.90183 c -0.475425,2.77833 -1.146613,10.92058 -1.248987,15.15401 1.701637,22.00182 -5.730547,23.29546 1.331286,64.59781 1.518734,8.88258 5.124899,16.68798 8.222184,25.75377 1.538654,4.50366 11.548948,31.57508 16.001558,11.43265 M 125.74685,215.24274 c 1.55593,2.69637 3.32416,4.94879 4.67446,8.05185 1.54088,3.54099 2.95855,9.44908 4.04815,13.00685 m 113.66467,-17.33687 c -1.47669,1.33388 -3.41584,2.66832 -4.70721,3.48063 m -138.88797,-4.1056 c -0.97462,4.21086 -3.33243,10.64896 -4.823193,15.17465 -1.406834,4.27089 -2.917128,8.55608 -4.732271,12.38747 -0.452674,0.95552 -0.831294,1.8123 -1.292757,2.78718 -0.87995,1.85888 -1.897631,3.27296 -2.834296,4.95499 m 13.670907,85.77973 c -0.78054,1.52751 -5.162164,2.50883 -6.487585,2.15915 -5.326465,-0.43724 -11.283066,-2.98841 -16.076958,-7.19069 -5.461082,-4.67014 -8.386468,-18.3152 -8.417496,-18.50114 -0.13412,-0.80374 -0.168286,-1.38161 -0.360143,-2.16781 -0.297385,-1.2186 -0.707718,-2.93771 -0.906486,-4.33561 -0.633581,-4.45602 -1.184283,-10.27471 -1.045353,-15.22786 0.116003,-4.13573 5.865239,-4.20389 6.205986,-2.94976 0.263061,0.96815 0.107458,1.45706 0.270013,2.69328 0.622557,4.73436 2.272096,12.81975 0.846712,17.65192 -1.221752,4.14183 -4.299019,2.65015 -5.627655,1.8878 m 1.167873,-34.611 c -1.623338,-0.26153 -3.639753,-0.25777 -5.986999,0.29591 -2.070667,0.48843 -4.269806,2.50793 -5.986102,4.55571 M 190.65125,243.05576 c 4.24347,0.0901 4.33154,0.57716 8.98122,-3.29353 2.29782,-2.52573 4.61534,-5.49811 6.47015,-9.04734 2.54846,-4.87654 4.68078,-10.12477 6.62683,-15.78185 1.47882,-4.29891 3.5476,-8.57813 4.26891,-13.31653 0.86795,-5.70169 0.76785,-4.03424 1.00616,-6.19734 m 21.93014,-17.7177 c 10.60179,3.74623 16.11082,18.02245 6.01375,19.75961 -9.59902,1.65147 -8.84168,11.02294 -14.88219,6.60497 -5.73346,-4.1934 -0.10714,-13.62585 1.01756,-20.28258 m 11.02365,14.61555 c 0.62771,4.47201 2.09702,10.00566 3.32616,14.36621 1.42276,5.02637 2.60495,10.1624 3.87223,15.48434 0.46032,1.93305 1.77636,5.11804 1.47618,7.18846 -0.42819,2.95329 -4.72991,6.40031 -6.24293,7.32469 -1.46713,0.89632 -2.72371,-3.91156 -3.02971,-6.15138 -0.2902,-2.12419 4.27111,-2.23415 2.91467,-6.32219 -1.29236,-3.89492 -3.96606,4.23204 -4.95985,0.22986 -0.1632,-0.65723 -1.55024,-3.39798 -1.3039,-4.12279 0.3004,-0.88386 3.32506,-2.96288 4.26478,-3.91643 0.42509,-0.43142 0.1834,-1.28519 0.1844,-2.28684 0.002,-1.44666 -0.67603,-3.29163 -0.98026,-4.64054 -0.90437,-4.00988 -2.71912,-11.6911 -3.61595,-14.24407 m -13.85539,-19.71756 c -1.09298,2.59775 -2.71592,6.98373 -4.65955,10.16378 -2.30577,3.77257 -5.32419,7.02903 -8.20946,10.41847 -3.22914,3.5514 -6.54235,6.83857 -9.91983,9.89637 -4.21753,3.81835 -9.63883,7.65877 -13.16942,9.92693 -2.36055,1.51649 -10.50461,6.61606 -12.48537,8.05163 -3.54345,2.56815 -7.19,4.9725 -10.77498,7.61504 -1.00832,0.74326 -2.04695,1.49782 -3.07857,2.10494 -1.24928,0.73526 -5.95884,3.66667 -8.55157,7.51638 -1.36706,2.02982 -2.58967,4.67426 -3.63521,7.2886 -1.08319,2.70844 -1.7156,4.39682 -2.35089,6.81311 l 2.7365,2.16781 M 72.073646,255.8117 c -3.2e-5,0.95352 0.125622,1.86194 0.137909,2.78718 0.0107,0.80574 0.103293,1.94904 -0.173276,2.68753 -0.334297,0.89266 -0.755341,0.60047 -1.363502,0.37327 -1.426334,-0.53295 -3.1802,-0.42419 -4.61785,-0.24591 -0.620073,0.0769 -1.092956,0.25892 -1.710315,0.28198 m 27.022973,0 c 1.048945,-0.28447 4.169445,-3.11475 5.473007,-4.35928 0.566134,-0.54052 1.242254,-1.21592 1.842941,-0.40768 0.934086,1.2569 1.170184,4.71154 1.479237,6.62508 0.44907,2.78045 0.82614,5.88601 1.08242,8.67123 0.1411,1.53354 0.21433,2.7459 0.21325,4.33561 -0.002,2.5525 -1.00662,4.95494 -2.309436,6.65784 -3.955704,2.06675 -8.422052,-9.54919 -8.029918,-21.52277 -0.06111,-2.19185 1.184537,-4.04166 2.129845,-5.2513 2.087014,-2.67063 4.30963,-3.30055 6.841259,-3.09807 2.77617,0.22206 5.15364,3.35446 7.00979,6.80093 1.28587,2.3876 2.21509,4.85383 3.31043,7.74217 1.18973,4.00716 2.71277,7.38554 3.53329,11.45806 m -0.39525,-1.87481 c 7.5385,1.97352 8.93611,6.10926 10.3104,9.25064 m -1.43254,-3.51664 c 1.84827,0.12517 5.96949,3.65368 7.1736,6.23858 m -12.59093,-14.74415 c 0.65625,-2.83357 1.53156,-4.83349 2.92086,-6.98875 2.67612,-4.15147 5.94472,-7.14147 9.06467,-9.96615 1.32025,-1.19527 2.75181,-2.5221 3.76269,-3.483 m 34.2063,3.71622 c 0.23412,3.13255 0.67049,9.18227 1.46587,11.88091 m -96.288366,-9.79896 c 0.440711,1.48764 1.007105,9.68856 1.264184,11.54381 0.450495,5.2656 1.165814,10.50212 1.201141,15.79448 0.0041,1.16942 0.174986,2.07625 -0.05345,3.04311 m 4.883105,3.86232 c 2.179195,2.70665 4.07788,1.70231 4.955335,-0.12146 2.293845,-4.76771 0.152669,-14.64295 -0.83905,-19.79081 -0.383954,-1.99308 -1.027422,-4.40888 -1.529387,-6.12301 -0.364119,-1.24341 -3.010083,-0.35308 -4.479647,0.0661 -3.836208,1.09415 -3.076427,2.76897 -2.461289,7.29676 0.238624,0.77112 0.507646,2.14762 0.723585,3.09543 1.078081,5.31753 2.325267,10.56493 3.760882,15.79436 0.592942,4.34631 2.717578,13.46453 5.146248,17.96183 0.754985,1.39805 1.578993,2.51156 2.379137,3.75662 3.329664,5.1812 6.780389,10.35409 10.261888,15.26568 1.948399,2.74873 8.356664,9.23296 10.090824,9.68562 2.63044,0.68662 5.20754,0.2396 7.35184,-2.94441 2.38527,-3.54178 4.30135,-9.29098 5.14889,-14.61478 0.33017,-2.07391 0.79774,-5.35646 0.83972,-7.1228 M 75.121558,269.74763 c 0.280305,-7.56262 8.114738,-8.88712 11.636873,-3.7963 6.074283,7.40001 7.202508,15.48793 10.052353,24.2356 1.534346,4.48063 3.774816,8.14493 6.017916,11.36999 10.16077,14.60913 21.87977,15.78885 23.94436,15.88245 3.23467,-3.8e-4 6.95815,-1.82784 8.9298,-6.81311 1.20256,-3.04069 1.52671,-7.14359 1.50245,-10.83904 -0.0103,-1.56344 -0.1286,-3.15833 -0.3439,-4.6453 -0.44739,-3.09014 -0.90694,-7.10487 -1.28844,-9.27037 m 41.99644,-19.22114 c 2.71128,3.23817 5.65552,4.77602 8.89364,4.6453 m -54.55904,10.52935 c 0.87688,-4.42353 1.49792,-7.74193 3.39257,-7.67498 2.47092,0.0873 5.96522,2.5659 7.86582,5.43308 2.20885,3.33219 1.31023,7.09176 0.54278,9.3647 m 7.86745,0.92906 c -0.50486,10.70471 -1.29885,20.63152 9.91982,25.14662 3.35983,1.23651 6.89024,2.74234 10.26189,3.5671 0.59585,0.14577 0.98869,0.25019 1.53928,0.47602 0.49159,0.20165 0.88399,0.22233 1.36825,0.23083 0.80186,0.0141 1.74612,0.30228 2.56548,0.30946 2.57735,0.0225 7.82255,-0.26797 9.59108,-1.29997 m -32.89616,-9.32432 c 0.33953,0.99166 1.02253,4.53808 1.29494,5.6692 0.91416,3.79586 2.15462,8.14947 3.34449,11.7681 2.97708,9.05392 7.93486,17.01353 12.33748,23.75413 1.93951,2.96944 4.15259,5.00803 6.4992,6.61094 0.49468,0.33793 0.88676,0.68802 1.36825,1.00316 0.51474,0.33686 1.00813,0.58357 1.53928,0.93836 1.79157,1.19671 3.4521,3.16045 4.95992,5.27378 1.18621,1.66256 3.85227,4.36405 4.02846,7.32422 0.2963,4.97812 -2.72088,1.54276 -3.6864,0.30968 -1.77356,-2.26504 -3.47308,-4.56693 -4.94461,-7.43248 -1.16004,-2.25892 -1.63127,-3.75204 -1.89665,-6.19374 M 61.610072,302.88409 c 1.147092,-3.73068 2.785149,-7.29722 5.130944,-8.7054 1.759116,-1.05601 3.449667,-1.48911 4.589421,-1.22826 m 102.134213,26.34706 c 0.36422,2.60871 1.39337,3.69836 2.31697,6.50343 0.63007,2.72779 1.93943,7.38006 2.34864,10.14021 m -0.91194,-4.22257 c 2.26656,2.46128 6.27827,6.84722 8.04078,10.18607 2.63521,4.99204 3.95757,10.83099 4.31155,17.65215 0.15709,3.027 -0.11505,6.58742 -1.05523,8.98091"
       id="path4"
       sodipodi:nodetypes="cssssssccssassssccsssccsssccscsccssccsscccccssscsssssccssssscccccsssccsccssscsssssssccssssccccsssssccssssssssssccsssccssssccssssscssssassscssssssccssscssssccssssssssssscsssscsccsssssccsssccsccccsssccsssssssssccsccssssccssccssssssssscsccasssssssscccsscsccsssscssssssccccccssccccssccsssssscssssssccsssssssccccssccsssscccssssssssssccsccsccssc" /><ellipse
       style="fill:none;stroke:#605757;stroke-width:0.281353"
       id="path5"
       cx="201.82967"
       cy="132.71222"
       rx="8.2190256"
       ry="9.6959829" /><path
       style="fill:none;stroke:#605757;stroke-width:0.289345"
       id="path5-0"
       sodipodi:type="arc"
       sodipodi:cx="117.72532"
       sodipodi:cy="-205.27911"
       sodipodi:rx="9.5209055"
       sodipodi:ry="8.8524265"
       sodipodi:start="6.2616189"
       sodipodi:end="3.9007033"
       sodipodi:open="true"
       sodipodi:arc-type="arc"
       d="m 127.24401,-205.47001 a 9.5209055,8.8524265 0 0 1 -6.84237,8.68638 9.5209055,8.8524265 0 0 1 -10.80151,-3.88117 9.5209055,8.8524265 0 0 1 1.21826,-10.70723"
       transform="matrix(-0.09213876,0.99574618,-0.99950429,-0.03148306,0,0)" /><path
       style="fill:none;stroke:#605757;stroke-width:0.289345"
       id="path5-0-3"
       sodipodi:type="arc"
       sodipodi:cx="-20.447378"
       sodipodi:cy="269.23935"
       sodipodi:rx="9.5209055"
       sodipodi:ry="8.8524265"
       sodipodi:start="5.5495946"
       sodipodi:end="4.5776862"
       sodipodi:arc-type="arc"
       d="m -13.375487,263.31229 a 9.5209055,8.8524265 0 0 1 0.816947,10.88326 9.5209055,8.8524265 0 0 1 -11.164726,3.35572 9.5209055,8.8524265 0 0 1 -6.189264,-9.26854 9.5209055,8.8524265 0 0 1 8.186534,-7.81562"
       transform="matrix(0.56651256,-0.8240531,0.8569436,0.5154102,0,0)"
       sodipodi:open="true" /><path
       style="fill:none;stroke:#605757;stroke-width:0.289345"
       id="path5-0-2"
       sodipodi:type="arc"
       sodipodi:cx="-51.357067"
       sodipodi:cy="252.06938"
       sodipodi:rx="9.5209055"
       sodipodi:ry="8.8524265"
       sodipodi:start="5.7994692"
       sodipodi:end="4.4299069"
       sodipodi:arc-type="arc"
       d="m -42.928469,247.95236 a 9.5209055,8.8524265 0 0 1 -1.427893,10.1167 9.5209055,8.8524265 0 0 1 -10.728472,2.146 9.5209055,8.8524265 0 0 1 -5.776058,-8.6757 9.5209055,8.8524265 0 0 1 6.849966,-7.97155"
       transform="matrix(0.44087242,-0.89756978,0.92269264,0.38553636,0,0)"
       sodipodi:open="true" /><path
       style="fill:none;stroke:#605757;stroke-width:0.289345"
       id="path5-0-1"
       sodipodi:type="arc"
       sodipodi:cx="1.5714815"
       sodipodi:cy="281.1871"
       sodipodi:rx="9.5209055"
       sodipodi:ry="8.8524265"
       sodipodi:start="5.7695242"
       sodipodi:end="4.7066192"
       sodipodi:arc-type="arc"
       d="m 9.8637274,276.83729 a 9.5209055,8.8524265 0 0 1 -1.600537,10.64694 9.5209055,8.8524265 0 0 1 -11.4693342,1.36006 9.5209055,8.8524265 0 0 1 -4.4233889,-9.9326 9.5209055,8.8524265 0 0 1 9.1460809,-6.57687"
       transform="matrix(0.65592503,-0.75482604,0.79327564,0.60886268,0,0)"
       sodipodi:open="true" /><path
       style="fill:none;stroke:#605757;stroke-width:0.289345"
       id="path5-0-7"
       sodipodi:type="arc"
       sodipodi:cx="-86.010818"
       sodipodi:cy="282.24637"
       sodipodi:rx="9.5209055"
       sodipodi:ry="8.8524265"
       sodipodi:start="5.9511604"
       sodipodi:end="3.9007033"
       sodipodi:open="true"
       sodipodi:arc-type="arc"
       d="m -77.009904,279.36085 a 9.5209055,8.8524265 0 0 1 -4.504078,10.68833 9.5209055,8.8524265 0 0 1 -12.065899,-2.43278 9.5209055,8.8524265 0 0 1 0.662137,-11.46295"
       transform="matrix(0.39536231,-0.91852526,0.94084496,0.33883737,0,0)" /></g><plotdata
     application="axidraw"
     model="2"
     layer="-2"
     node="0"
     last_path="0"
     node_after_path="0"
     last_known_x="0"
     last_known_y="0"
     paused_x="0"
     paused_y="0"
     randseed="0"
     row="0"
     id="1739133730" /></svg>
