<?xml version="1.0" encoding="UTF-8" standalone="no"?>
<!-- Created with Inkscape (http://www.inkscape.org/) -->

<svg
   width="29.700001cm"
   height="42cm"
   viewBox="0 0 297.00001 420"
   version="1.1"
   id="svg1"
   xml:space="preserve"
   inkscape:version="1.4 (e7c3feb1, 2024-10-09)"
   sodipodi:docname="tennis_champs.svg"
   xmlns:inkscape="http://www.inkscape.org/namespaces/inkscape"
   xmlns:sodipodi="http://sodipodi.sourceforge.net/DTD/sodipodi-0.dtd"
   xmlns="http://www.w3.org/2000/svg"
   xmlns:svg="http://www.w3.org/2000/svg"><sodipodi:namedview
     id="namedview1"
     pagecolor="#ffffff"
     bordercolor="#000000"
     borderopacity="0.25"
     inkscape:showpageshadow="2"
     inkscape:pageopacity="0.0"
     inkscape:pagecheckerboard="0"
     inkscape:deskcolor="#d1d1d1"
     inkscape:document-units="cm"
     inkscape:zoom="0.77292103"
     inkscape:cx="342.20831"
     inkscape:cy="873.95733"
     inkscape:window-width="1224"
     inkscape:window-height="776"
     inkscape:window-x="169"
     inkscape:window-y="62"
     inkscape:window-maximized="0"
     inkscape:current-layer="layer1" /><defs
     id="defs1" /><g
     inkscape:label="Layer 1"
     inkscape:groupmode="layer"
     id="layer1"><g
       id="g1"
       transform="translate(6.0600708,-11.923757)"><g
         id="g129"
         inkscape:label="trophy"><path
           style="fill:none;stroke:#605757;stroke-width:0.297"
           d="m 66.716515,231.43525 -8.290216,-7.50067 0.175445,-6.84852 13.02261,11.74588"
           id="path1" /><path
           style="fill:none;stroke:#605757;stroke-width:0.297"
           d="m 90.896318,237.75161 50.530852,-4.73727 -0.19739,-7.00721 -58.722373,5.62551"
           id="path2" /><path
           style="fill:none;stroke:#605757;stroke-width:0.297"
           d="m 58.54364,216.88825 5.118661,-3.29814 14.636188,12.82482 57.346381,-5.2077 5.64928,4.67105"
           id="path3"
           sodipodi:nodetypes="ccccc" /><path
           style="fill:none;stroke:#605757;stroke-width:0.297"
           d="m 63.68235,213.57072 0.459573,-24.40295 14.457387,9.84188 -0.349676,27.53694"
           id="path4" /><path
           style="fill:none;stroke:#605757;stroke-width:0.297"
           d="m 64.016947,189.04004 6.496217,-0.33266"
           id="path5"
           sodipodi:nodetypes="cc" /><path
           style="fill:none;stroke:#605757;stroke-width:0.297"
           d="m 78.62031,198.96923 56.42601,-4.83222 -9.70051,-5.32577"
           id="path6" /><path
           style="fill:none;stroke:#605757;stroke-width:0.297"
           d="m 135.27477,194.16559 0.41477,26.99651"
           id="path7" /><path
           style="fill:none;stroke:#605757;stroke-width:0.297"
           d="m 86.829018,204.53931 -0.03929,16.14784 40.428532,-3.57532 v -16.14784 z"
           id="path8" /><path
           style="fill:none;stroke:#605757;stroke-width:0.297"
           d="m 122.6372,183.51466 c 7.21197,7.97564 0.17099,12.51969 -25.054778,12.67037 -14.068642,-0.85874 -35.238751,-0.32309 -23.791562,-12.83078 10.315055,-1.60499 15.1409,-8.24176 15.496064,-18.97665 M 73.79086,183.35425 c 11.201771,5.68418 40.0226,4.88454 48.84634,0.16041 -12.91265,-3.02011 -16.09183,-10.0879 -15.79176,-19.05373"
           id="path9"
           sodipodi:nodetypes="ccccccc" /><path
           style="fill:none;stroke:#605757;stroke-width:0.297"
           d="m 85.155219,156.8689 c -6.091714,11.33454 30.985641,12.25236 25.966611,0.15274"
           id="path10"
           sodipodi:nodetypes="cc" /><path
           style="fill:none;stroke:#605757;stroke-width:0.297"
           d="m 52.669078,82.431569 c 2.228684,102.051221 88.677432,104.625401 91.632302,0.17058"
           id="path11"
           sodipodi:nodetypes="cc" /><path
           style="display:inline;fill:none;stroke:#605757;stroke-width:0.297"
           d="m 59.029546,88.840455 c 0.75522,11.716485 2.5796,23.627365 6.021409,35.832315"
           id="path12"
           sodipodi:nodetypes="cc" /><ellipse
           style="fill:none;stroke:#605757;stroke-width:0.284173"
           id="path13"
           cx="98.823967"
           cy="73.905556"
           rx="49.3437"
           ry="4.7015924" /><path
           style="fill:none;stroke:#605757;stroke-width:0.297"
           d="m 49.45906,73.885257 c -0.108927,1.116774 -0.881226,6.497259 3.170988,8.582981 30.784221,5.525939 61.294052,4.740925 91.641492,0.220871 3.82323,-2.152302 3.64473,-5.481584 3.88404,-8.68798"
           id="path14"
           sodipodi:nodetypes="cccc" /><path
           style="fill:none;stroke:#605757;stroke-width:0.297"
           d="m 49.91822,79.401778 c -7.107,-7.643383 -15.912673,-7.191746 -24.022984,0.0345 -8.110311,7.226245 -5.711524,26.644112 8.603239,40.061912 9.311325,9.22168 13.385768,10.03123 25.427616,18.94743 3.796948,2.81139 3.381581,5.35982 3.025942,6.20111 -1.220404,2.88695 -5.070129,-0.45238 -4.909081,2.07529 h -3e-6 c 0.441655,6.93179 18.355658,2.90982 7.18297,-9.54468 C 59.700384,132.36944 49.990711,127.14781 43.000046,121.72805 30.800682,112.27006 24.42752,96.221089 28.047761,87.902494 c 6.598478,-15.161992 21.833209,-1.341586 20.787655,6.836738 4.023198,0.482397 5.178311,-8.518497 2.632979,-13.07593"
           id="path15"
           sodipodi:nodetypes="czcsssscsscc" /><path
           style="fill:none;stroke:#605757;stroke-width:0.297017"
           d="m 147.35831,79.30811 c 7.10777,-7.643397 15.86278,-7.140123 23.97398,0.08613 8.11119,7.226245 5.71215,26.64413 -8.60419,40.06194 -9.31234,9.22169 -13.38722,10.03124 -25.43038,18.94745 -3.79738,2.81139 -3.38195,5.35983 -3.02628,6.20112 1.22054,2.88695 5.07069,-0.45239 4.90962,2.07529 v 0 c -0.4417,6.93179 -18.35766,2.90982 -7.18376,-9.54469 5.52615,-4.80791 15.23688,-10.02954 22.2283,-15.4493 12.2007,-9.458 18.57457,-25.506987 14.95393,-33.825593 -6.5992,-15.162003 -21.8356,-1.341581 -20.78993,6.836744 -4.02363,0.4824 -5.40263,-8.329185 -2.85702,-12.886618"
           id="path15-8"
           sodipodi:nodetypes="czcsssscsscc" /></g><g
         id="g128"
         inkscape:label="ball"><ellipse
           style="fill:none;stroke:#605757;stroke-width:0.352767"
           id="path16"
           cx="246.77702"
           cy="226.95795"
           rx="27.323618"
           ry="27.323616" /><path
           style="fill:none;stroke:#605757;stroke-width:0.297"
           d="m 224.81594,211.0895 c 28.6366,-12.95254 14.14444,35.21273 45.87068,29.14472"
           id="path17"
           sodipodi:nodetypes="cc" /><path
           style="fill:none;stroke:#605757;stroke-width:0.297"
           d="m 222.17579,215.29691 c 28.6366,-12.95254 14.14444,35.21273 45.87068,29.14472"
           id="path17-6"
           sodipodi:nodetypes="cc" /></g><g
         id="g127"
         inkscape:label="racket"><path
           style="fill:none;stroke:#605757;stroke-width:0.297"
           d="m 178.54793,172.63173 c 8.72217,15.25917 20.47707,17.221 32.76666,16.83842 -15.46923,7.5149 -27.30803,20.47543 -38.37946,34.58703 4.42685,-19.05875 7.77875,-37.31129 5.6128,-51.42545 z"
           id="path18"
           sodipodi:nodetypes="cccc" /><ellipse
           style="fill:none;stroke:#605757;stroke-width:0.348298"
           id="path19"
           cx="257.07953"
           cy="-1.3247821"
           rx="43.884804"
           ry="58.284882"
           transform="matrix(0.86208802,0.50675857,-0.49002791,0.87170674,0,0)" /><path
           style="fill:none;stroke:#605757;stroke-width:0.297"
           d="m 165.09981,224.65835 c 7.40663,-16.1087 8.94196,-34.85948 8.61263,-54.44936 -19.07744,-54.26532 27.535,-122.730353 77.07577,-97.804478 49.33557,24.82263 22.68015,102.694608 -32.11491,119.263078 -22.1914,10.94754 -31.98137,24.99543 -42.04133,38.97582"
           id="path20"
           sodipodi:nodetypes="ccscc" /><path
           style="fill:none;stroke:#605757;stroke-width:0.297"
           d="m 176.69501,230.68516 -11.62087,-6.17134 c -13.99157,16.34336 -23.72621,45.08223 -32.73377,52.71102 -3.91351,6.55708 8.03398,11.07997 10.66376,11.08688"
           id="path21"
           sodipodi:nodetypes="cccc" /><path
           style="fill:none;stroke:#605757;stroke-width:0.297"
           d="m 151.05323,285.27047 c -1.48234,-5.44878 25.77333,-43.38748 25.50512,-54.69404"
           id="path22"
           sodipodi:nodetypes="cc" /><path
           style="fill:none;stroke:#605757;stroke-width:0.297"
           d="m 133.03531,276.66199 c 2.385,5.05451 8.97998,7.25919 15.29087,9.65618"
           id="path23"
           sodipodi:nodetypes="cc" /><path
           style="fill:none;stroke:#605757;stroke-width:0.297"
           d="m 139.5351,267.80078 c 2.59165,3.96083 7.59898,8.07264 12.92944,12.20465"
           id="path24"
           sodipodi:nodetypes="cc" /><path
           style="fill:none;stroke:#605757;stroke-width:0.297"
           d="m 144.54936,258.62048 c 2.91109,4.33945 6.96937,8.43307 12.89465,12.12662"
           id="path25"
           sodipodi:nodetypes="cc" /><path
           style="fill:none;stroke:#605757;stroke-width:0.297"
           d="m 149.31917,249.28297 c 0.35495,3.93453 8.01067,8.49039 12.93507,12.81381"
           id="path26"
           sodipodi:nodetypes="cc" /><path
           style="fill:none;stroke:#605757;stroke-width:0.297"
           d="m 154.37193,239.94547 c 2.7577,4.32536 7.73833,8.55407 12.93506,12.77338"
           id="path27"
           sodipodi:nodetypes="cc" /><path
           style="fill:none;stroke:#605757;stroke-width:0.297"
           d="m 159.54596,231.53768 c 3.7302,4.04544 8.03336,8.02721 12.73295,11.96494"
           id="path28"
           sodipodi:nodetypes="cc" /><path
           style="fill:none;stroke:#605757;stroke-width:0.297"
           d="m 161.93086,228.38476 c 4.68768,1.99799 9.18752,4.5595 13.66266,7.19513"
           id="path29"
           sodipodi:nodetypes="cc" /><path
           style="fill:none;stroke:#605757;stroke-width:0.297"
           d="m 174.89332,139.28685 26.3727,-52.843178"
           id="path30"
           sodipodi:nodetypes="cc" /><path
           style="fill:none;stroke:#605757;stroke-width:0.297"
           d="M 175.91235,153.03748 211.95877,79.334796"
           id="path31"
           sodipodi:nodetypes="cc" /><path
           style="fill:none;stroke:#605757;stroke-width:0.297"
           d="M 220.47477,75.706406 178.88325,162.46659"
           id="path32" /><path
           style="fill:none;stroke:#605757;stroke-width:0.297"
           d="m 182.10977,168.77904 46.4639,-94.896643"
           id="path33" /><path
           style="fill:none;stroke:#605757;stroke-width:0.297"
           d="M 186.34794,174.14989 235.17984,73.665047"
           id="path34" /><path
           style="fill:none;stroke:#605757;stroke-width:0.297"
           d="M 190.91723,177.96427 241.93445,74.61864"
           id="path35" /><path
           style="fill:none;stroke:#605757;stroke-width:0.297"
           d="M 196.71427,181.54847 248.4986,76.87684"
           id="path36" /><path
           style="fill:none;stroke:#605757;stroke-width:0.297"
           d="M 203.18251,183.64445 253.79476,80.086051"
           id="path37" /><path
           style="fill:none;stroke:#605757;stroke-width:0.297"
           d="M 209.11728,184.51133 258.39588,84.353751"
           id="path38" /><path
           style="fill:none;stroke:#605757;stroke-width:0.297"
           d="M 216.78581,184.17791 262.99699,90.421886"
           id="path39" /><path
           style="fill:none;stroke:#605757;stroke-width:0.297"
           d="M 225.64985,181.95606 266.67048,98.387217"
           id="path40" /><path
           style="fill:none;stroke:#605757;stroke-width:0.297"
           d="m 235.89409,177.03568 33.26614,-68.14377"
           id="path41" /><path
           style="fill:none;stroke:#605757;stroke-width:0.297"
           d="m 249.17065,166.29932 19.61431,-40.50397"
           id="path42"
           sodipodi:nodetypes="cc" /><path
           style="fill:none;stroke:#605757;stroke-width:0.297"
           d="M 231.13271,179.56466 175.3214,150.31114"
           id="path43" /><path
           style="fill:none;stroke:#605757;stroke-width:0.297"
           d="m 239.61407,174.68755 -64.89018,-33.4624"
           id="path44" /><path
           style="fill:none;stroke:#605757;stroke-width:0.297"
           d="M 245.74488,169.63498 175.3564,133.34916"
           id="path45" /><path
           style="fill:none;stroke:#605757;stroke-width:0.297"
           d="M 249.8965,164.52435 176.74346,126.09277"
           id="path46" /><path
           style="fill:none;stroke:#605757;stroke-width:0.297"
           d="M 254.75367,159.55477 178.71452,119.26391"
           id="path47" /><path
           style="fill:none;stroke:#605757;stroke-width:0.297"
           d="m 258.78649,153.54184 -77.6304,-40.58961"
           id="path48" /><path
           style="fill:none;stroke:#605757;stroke-width:0.297"
           d="M 262.28652,147.18397 184.51559,106.583"
           id="path49" /><path
           style="fill:none;stroke:#605757;stroke-width:0.297"
           d="M 265.00548,140.56473 188.09411,100.87986"
           id="path50" /><path
           style="fill:none;stroke:#605757;stroke-width:0.297"
           d="M 267.20486,133.45147 192.68317,94.957233"
           id="path51" /><path
           style="fill:none;stroke:#605757;stroke-width:0.297"
           d="M 268.91542,125.88426 197.78035,89.536389"
           id="path52" /><path
           style="fill:none;stroke:#605757;stroke-width:0.297"
           d="M 269.66416,117.5869 204.01541,84.177179"
           id="path53" /><path
           style="fill:none;stroke:#605757;stroke-width:0.297"
           d="M 269.05628,108.2664 211.98178,79.289116"
           id="path54" /><path
           style="fill:none;stroke:#605757;stroke-width:0.297"
           d="M 266.57377,98.332393 221.13579,75.434539"
           id="path55" /></g><g
         id="g126"
         inkscape:label="right shoe"><path
           style="fill:none;stroke:#605757;stroke-width:0.297"
           d="m 130.45141,291.90562 c 9.27828,-1.65111 21.13795,-6.82543 30.44754,-11.09994"
           id="path56"
           sodipodi:nodetypes="cc" /><path
           style="fill:none;stroke:#605757;stroke-width:0.297"
           d="m 150.10003,323.84766 c 14.56186,4.68802 45.51952,6.0616 77.38664,-7.72584 21.44905,4.83574 59.81304,0.54087 41.93431,-25.42786"
           id="path57"
           sodipodi:nodetypes="ccc" /><path
           style="fill:none;stroke:#605757;stroke-width:0.297"
           d="m 216.86831,320.2027 c 3.81561,-14.16847 44.347,-9.79179 56.45059,-21.79942"
           id="path58"
           sodipodi:nodetypes="cc" /><path
           style="fill:none;stroke:#605757;stroke-width:0.297"
           d="m 152.32859,314.66116 c 17.80452,5.20043 50.47149,2.39147 76.39075,-9.61251 8.49146,-3.93264 30.27036,0.9967 40.80573,-14.24029"
           id="path59"
           sodipodi:nodetypes="csc" /><path
           style="fill:none;stroke:#605757;stroke-width:0.297"
           d="m 269.48539,290.90275 c -1.61566,-26.06356 -6.49012,-36.46814 -14.44861,-36.567 -7.95849,-0.0989 -11.74972,9.70782 -18.80204,10.15916 -7.05232,0.45134 -12.51088,-3.89203 -12.51088,-3.89203 -10.63742,-8.97825 -13.13469,-23.67965 -27.8417,-9.23034"
           id="path60"
           sodipodi:nodetypes="czzcc" /><path
           style="fill:none;stroke:#605757;stroke-width:0.297"
           d="m 261.05971,257.07166 c -10.80349,-1.71284 -7.00107,17.4079 -19.17055,15.75957 -14.19392,-1.92253 -23.89764,-26.33272 -35.78106,-17.02741 l -1.27979,1.00459"
           id="path61"
           sodipodi:nodetypes="cscc" /><path
           style="fill:none;stroke:#605757;stroke-width:0.297"
           d="m 234.32561,303.62179 c 3.11175,-17.83136 27.22904,-26.21717 31.28902,-38.13156"
           id="path62"
           sodipodi:nodetypes="cc" /><path
           style="fill:none;stroke:#605757;stroke-width:0.297"
           d="m 244.83823,302.5021 c 3.21248,-12.55925 15.25983,-18.66225 22.89138,-27.99218"
           id="path63"
           sodipodi:nodetypes="cc" /><path
           style="fill:none;stroke:#605757;stroke-width:0.297"
           d="m 140.80942,299.40061 c 14.62551,3.73995 24.8524,-6.00423 43.45395,17.33189"
           id="path64"
           sodipodi:nodetypes="cc" /><path
           style="fill:none;stroke:#605757;stroke-width:0.297"
           d="m 216.93776,309.712 c -6.8156,-11.40152 -17.86804,-18.17165 -28.96641,-22.95488"
           id="path65"
           sodipodi:nodetypes="cc" /><path
           style="fill:none;stroke:#605757;stroke-width:0.297"
           d="m 208.74834,312.33751 c -6.66138,-10.36349 -17.98568,-17.97805 -27.6065,-20.58191"
           id="path66"
           sodipodi:nodetypes="cc" /><path
           style="fill:none;stroke:#605757;stroke-width:0.297"
           d="m 198.17254,314.39944 c -3.06001,-10.17711 -19.98602,-17.54823 -19.53062,-20.31362 0.4554,-2.76539 48.82076,-31.29001 43.10954,-35.21806"
           id="path67"
           sodipodi:nodetypes="czc" /><path
           style="fill:none;stroke:#605757;stroke-width:0.297"
           d="m 156.32922,282.81752 c 7.42326,5.58478 10.48231,4.19936 12.92002,2.77742"
           id="path68"
           sodipodi:nodetypes="cc" /><path
           style="fill:none;stroke:#605757;stroke-width:0.297"
           d="m 172.47056,283.83944 4.92706,-3.46496"
           id="path69"
           sodipodi:nodetypes="cc" /><path
           style="fill:none;stroke:#605757;stroke-width:0.297"
           d="m 179.72639,278.58919 3.90222,-3.01793"
           id="path70"
           sodipodi:nodetypes="cc" /><path
           style="fill:none;stroke:#605757;stroke-width:0.297"
           d="m 187.00385,272.29345 6.02435,-4.12794"
           id="path71"
           sodipodi:nodetypes="cc" /><path
           style="fill:none;stroke:#605757;stroke-width:0.297"
           d="m 195.54792,265.17531 2.98857,-2.2903"
           id="path72"
           sodipodi:nodetypes="cc" /><path
           style="fill:none;stroke:#605757;stroke-width:0.297"
           d="m 160.63011,280.7348 c 0.0221,-0.0453 0.51769,-1.46515 3.37037,-1.5041 2.85267,-0.0389 11.6005,5.8731 11.03102,7.72802 -0.56948,1.85492 -2.24183,0.74563 -2.43751,0.58789 -0.19568,-0.15774 -11.98601,-6.76651 -11.96388,-6.81181 z"
           id="path73"
           sodipodi:nodetypes="zzzzz" /><path
           style="fill:none;stroke:#605757;stroke-width:0.297"
           d="m 163.38068,279.29091 8.92397,-5.12431 m 9.7547,-8.30392 7.44337,-7.32369"
           id="path74"
           sodipodi:nodetypes="cccc" /><path
           style="fill:none;stroke:#605757;stroke-width:0.297"
           d="m 166.59883,277.50683 10.5876,2.94837"
           id="path75"
           sodipodi:nodetypes="cc" /><path
           style="fill:none;stroke:#605757;stroke-width:0.297"
           d="m 172.29048,274.17313 c 1.2121,0.004 7.19429,10.12331 8.71948,9.12253 1.5252,-1.00078 -0.23782,-2.91563 -1.16703,-4.72332 -0.92926,-1.80769 -4.00084,-4.41038 -4.00084,-4.41038"
           id="path76"
           sodipodi:nodetypes="czzc" /><path
           style="fill:none;stroke:#605757;stroke-width:0.269353"
           d="m 184.25383,273.43089 c -1.09994,-0.46674 -8.84226,-2.48127 -10.58658,-2.0514 -1.74433,0.42987 -1.59556,3.47967 -1.38522,2.75119 0.21034,-0.72848 12.33829,1.27623 13.37324,2.1926"
           id="path77"
           sodipodi:nodetypes="czzc" /><path
           style="fill:none;stroke:#605757;stroke-width:0.297"
           d="m 175.40836,271.32999 4.54634,-3.55972"
           id="path78"
           sodipodi:nodetypes="cc" /><path
           style="fill:none;stroke:#605757;stroke-width:0.297"
           d="m 181.44072,268.01291 c 2.67962,3.61229 4.32244,10.86838 6.31277,9.85376 1.99033,-1.01462 -0.69207,-5.73468 -2.60936,-9.40236"
           id="path79"
           sodipodi:nodetypes="czc" /><path
           style="fill:none;stroke:#605757;stroke-width:0.297"
           d="m 191.39418,269.30639 -10.23938,-1.28955 c -3.68731,-0.15383 0.70459,-2.53092 2.3796,-2.41313 2.73106,0.0619 6.56481,0.11024 9.13735,1.40066"
           id="path80"
           sodipodi:nodetypes="cccc" /><path
           style="fill:none;stroke:#605757;stroke-width:0.297"
           d="m 189.92559,258.65487 c 0.8668,2.17911 3.86645,13.87383 5.79191,12.81714 1.92546,-1.05669 -2.15227,-12.68539 -2.15227,-12.68539"
           id="path81"
           sodipodi:nodetypes="czc" /><path
           style="fill:none;stroke:#605757;stroke-width:0.297"
           d="m 194.37591,256.13103 c -3.73969,0.0385 -5.96041,2.10912 -4.82865,2.42838 1.13176,0.31926 5.58008,0.0739 6.313,0.2559"
           id="path82"
           sodipodi:nodetypes="czc" /><path
           style="fill:none;stroke:#605757;stroke-width:0.297"
           d="m 198.98609,255.48177 c 0,0 12.25505,2.06263 10.98742,4.45421 -1.26762,2.39159 -8.81105,-0.88838 -8.81105,-0.88838"
           id="path83"
           sodipodi:nodetypes="czc" /><path
           style="fill:none;stroke:#605757;stroke-width:0.297"
           d="m 193.39384,253.73464 c 0.0143,0.50511 5.58098,12.98946 9.19604,12.31823 3.61506,-0.67123 -5.99104,-14.62343 -6.88016,-14.69952 -0.88912,-0.0761 -2.33018,1.87617 -2.31588,2.38129 z"
           id="path84"
           sodipodi:nodetypes="zzzz" /><path
           style="fill:none;stroke:#605757;stroke-width:0.297"
           d="m 191.08787,256.77139 2.38089,-2.88664"
           id="path85"
           sodipodi:nodetypes="cc" /></g><path
         style="font-size:14.1111px;font-family:Graduate;-inkscape-font-specification:'Graduate, Normal';letter-spacing:3.96875px;fill:none;stroke:#605757;stroke-width:0.297"
         d="m 78.297955,224.80188 h -4.120441 v -1.12889 h 1.41111 v -8.32555 h -2.088443 v 1.63689 h -1.072444 v -2.76578 h 7.619995 v 2.76578 h -1.072444 v -1.63689 h -2.088443 v 8.32555 h 1.41111 z m 13.338519,-7.25311 H 90.465253 V 216.307 l -0.846666,-0.87489 H 87.459589 L 86.725811,216.18 v 1.94733 l 0.691444,0.70555 h 2.935109 l 1.425221,1.49578 v 2.921 l -1.467554,1.55222 h -3.555997 l -1.467555,-1.55222 v -1.778 h 1.171222 v 1.24178 l 0.860777,0.87489 h 2.44122 l 0.719666,-0.74789 v -2.10256 l -0.677333,-0.69144 h -2.935109 l -1.439332,-1.50989 v -2.76577 l 1.467555,-1.55223 h 3.273775 l 1.467554,1.55223 z m 7.849308,-3.33022 h 3.767668 v 1.12889 h -0.64911 l 2.48355,8.32555 h 0.70555 v 1.12889 h -2.99155 v -1.12889 h 0.98778 l -0.64911,-2.17311 h -3.541889 l -0.649111,2.17311 h 0.987777 v 1.12889 h -2.991553 v -1.12889 h 0.705555 l 2.483551,-8.32555 h -0.649108 z m 1.876778,1.34056 -1.425223,4.81188 h 2.864553 z"
         id="text85"
         transform="rotate(-4.8599754)"
         aria-label="TSA"
         inkscape:label="TSA" /><g
         id="g125"
         inkscape:label="left shoe"><path
           style="fill:none;stroke:#605757;stroke-width:0.297"
           d="m 13.716137,261.17812 c -13.59025703,16.62382 -2.642071,28.40691 34.853278,39.73297 9.349641,9.32235 24.534233,35.30513 77.343595,32.15678 18.36534,-0.44563 27.63929,-7.13735 26.34103,-19.19281 C 150.95578,301.8196 125.89968,291.911 120.6105,282.6557 m -1.47039,-2.43872 c -2.05441,-3.13919 -1.90509,-2.74384 -4.33814,-5.70963 -2.1343,-3.61797 -4.9446,-6.72895 -7.45099,-10.06786 l -0.63329,-0.8278"
           id="path86"
           sodipodi:nodetypes="ccczccccc" /><path
           style="fill:none;stroke:#605757;stroke-width:0.297"
           d="m 119.18688,333.29508 c 4.39907,-0.12089 7.30819,-0.56764 10.41928,-2.97822 3.80086,-2.94503 5.6843,-5.18333 7.84445,-8.07047 3.11403,-4.16206 13.0113,-3.79609 14.89821,-7.67029"
           id="path87"
           sodipodi:nodetypes="cssc" /><path
           style="fill:none;stroke:#605757;stroke-width:0.297"
           d="M 48.584997,300.91955 C 50.931354,291.84227 14.85485,278.4962 9.3629765,267.70659"
           id="path88"
           sodipodi:nodetypes="cc" /><path
           style="fill:none;stroke:#605757;stroke-width:0.297"
           d="m 135.47808,324.51559 c -28.24953,2.36962 -55.49451,-6.78517 -65.243688,-15.71908 -11.963739,-10.96327 -21.62762,-22.35225 -29.281413,-28.02874 -5.433183,-4.02956 -13.0481,-6.65479 -18.690539,-9.96676 -4.895146,-2.87332 -8.141243,-6.32569 -8.589278,-9.62267"
           id="path89"
           sodipodi:nodetypes="csssc" /><path
           style="fill:none;stroke:#605757;stroke-width:0.297"
           d="m 13.665764,261.24341 c -1.315542,-2.36798 9.265883,-36.04833 13.367917,-39.86568 4.102034,-3.81735 13.737824,-2.79726 17.104114,0.0574 3.36629,2.85466 4.954426,8.39438 8.379868,11.99584 3.425442,3.60146 8.379868,4.24733 8.379868,4.24733"
           id="path90"
           sodipodi:nodetypes="czzzc" /><path
           style="fill:none;stroke:#605757;stroke-width:0.297"
           d="m 19.280016,238.86845 c 8.083134,13.61978 17.633833,27.11726 20.600565,41.16341"
           id="path91"
           sodipodi:nodetypes="cc" /><path
           style="fill:none;stroke:#605757;stroke-width:0.297"
           d="m 70.160694,308.82961 c 2.524014,-4.57607 9.311988,-12.451 18.746472,-9.03875 23.837024,8.62135 46.678384,19.69068 59.992824,6.8175"
           id="path92"
           sodipodi:nodetypes="csc" /><path
           style="fill:none;stroke:#605757;stroke-width:0.297"
           d="m 58.27134,297.24345 c 0.170125,-13.71709 11.06415,-20.28774 17.442007,-26.79741"
           id="path93"
           sodipodi:nodetypes="cc" /><path
           style="fill:none;stroke:#605757;stroke-width:0.297"
           d="m 72.836404,304.78688 c -11.96987,-13.69395 0.797269,-20.03316 9.075587,-26.26675"
           id="path94"
           sodipodi:nodetypes="cc" /><path
           style="fill:none;stroke:#605757;stroke-width:0.297"
           d="m 51.592203,290.33394 c 0.197503,-8.75056 8.986274,-17.64386 19.21282,-26.73439"
           id="path95"
           sodipodi:nodetypes="cc" /><path
           style="fill:none;stroke:#605757;stroke-width:0.297"
           d="m 32.461312,261.27123 c 14.78198,1.8368 23.744306,-1.68661 32.969405,-4.96799"
           id="path96"
           sodipodi:nodetypes="cc" /><path
           style="fill:none;stroke:#605757;stroke-width:0.297"
           d="m 35.566309,267.42475 c 15.868904,2.55706 25.43686,-0.67664 35.131857,-3.99949"
           id="path97"
           sodipodi:nodetypes="cc" /><path
           style="fill:none;stroke:#605757;stroke-width:0.297"
           d="m 129.07003,290.7536 c -1.87084,4.06476 -19.57581,10.59638 -27.76611,6.13559 -16.428603,-8.94774 -39.399562,-47.46234 -42.969262,-49.44688 -3.5697,-1.98454 -26.860084,20.9426 -32.404334,-16.23596 -0.246242,-1.65125 -0.936541,-3.73568 -1.829915,-4.89057"
           id="path98"
           sodipodi:nodetypes="cszsc" /><path
           style="fill:none;stroke:#605757;stroke-width:0.297"
           d="m 26.662341,221.72127 c 13.804965,-2.84474 1.576707,19.81619 11.809891,24.79302 12.466077,6.06277 22.502403,-12.41424 34.452827,-2.40431"
           id="path99"
           sodipodi:nodetypes="csc" /><path
           style="fill:none;stroke:#605757;stroke-width:0.297"
           d="m 57.43573,243.09066 c 7.330033,-12.75291 21.029937,-25.75976 31.989341,-0.31502 l 0.32484,0.69901"
           id="path100"
           sodipodi:nodetypes="cc" /><path
           style="fill:none;stroke:#605757;stroke-width:0.297"
           d="m 93.733667,243.20782 c -1.525062,-3.51885 -5.714158,-11.41791 -7.124774,-5.95758"
           id="path101"
           sodipodi:nodetypes="cc" /><path
           style="fill:none;stroke:#605757;stroke-width:0.297"
           d="m 83.573252,247.96322 c -10.101833,-3.28756 -14.693787,2.23897 -15.474207,-0.68914 -0.78042,-2.92811 8.466629,-4.93346 18.767331,-2.05863"
           id="path102"
           sodipodi:nodetypes="czc" /><path
           style="fill:none;stroke:#605757;stroke-width:0.297"
           d="m 76.179958,258.28952 c 2.096263,2.1164 18.654035,-13.25516 18.654035,-13.25516 0,0 0.930964,-1.30634 -2.457416,-2.38295 -3.38838,-1.07661 -18.292882,13.52172 -16.196619,15.63811 z"
           id="path103"
           sodipodi:nodetypes="zczz" /><path
           style="fill:none;stroke:#605757;stroke-width:0.297"
           d="m 89.464988,249.78256 c 2.327243,1.21281 6.534698,2.21221 8.786409,2.51865"
           id="path104"
           sodipodi:nodetypes="cc" /><path
           style="fill:none;stroke:#605757;stroke-width:0.297"
           d="m 92.49351,247.14495 c 1.173473,0.48443 2.991317,1.42183 4.126458,1.88404"
           id="path105"
           sodipodi:nodetypes="cc" /><path
           style="fill:none;stroke:#605757;stroke-width:0.297"
           d="m 75.282276,246.92753 3.916177,5.33267"
           id="path106" /><path
           style="fill:none;stroke:#605757;stroke-width:0.297"
           d="m 81.731201,255.96985 4.59346,6.59073"
           id="path107"
           sodipodi:nodetypes="cc" /><path
           style="fill:none;stroke:#605757;stroke-width:0.297"
           d="m 88.805441,265.78529 5.493527,7.42114"
           id="path108"
           sodipodi:nodetypes="cc" /><path
           style="fill:none;stroke:#605757;stroke-width:0.297"
           d="m 96.117629,276.05657 6.080301,8.41471"
           id="path109" /><path
           style="fill:none;stroke:#605757;stroke-width:0.297"
           d="m 104.39073,287.07451 c 5.14009,3.46473 15.36488,0.45788 16.2411,-4.50734"
           id="path110"
           sodipodi:nodetypes="cc" /><path
           style="fill:none;stroke:#605757;stroke-width:0.297"
           d="m 102.23617,287.79438 c 0.44102,-0.22932 18.21046,-4.98087 18.35439,-5.1344 0.14394,-0.15354 0.57004,-1.28024 -1.06612,-2.27803 -1.63615,-0.9978 -19.687539,3.32555 -20.304357,6.14334 -0.616818,2.81779 2.575077,1.4984 3.016087,1.26909 z"
           id="path111"
           sodipodi:nodetypes="zzzzz" /><path
           style="fill:none;stroke:#605757;stroke-width:0.297"
           d="m 97.639627,278.22044 9.176953,0.52207"
           id="path112"
           sodipodi:nodetypes="cc" /><path
           style="fill:none;stroke:#605757;stroke-width:0.297"
           d="m 111.02954,279.23676 7.96782,0.96348"
           id="path113"
           sodipodi:nodetypes="cc" /><path
           style="fill:none;stroke:#605757;stroke-width:0.297"
           d="m 102.01458,284.41497 9.77198,-11.51836"
           id="path114"
           sodipodi:nodetypes="cc" /><path
           style="fill:none;stroke:#605757;stroke-width:0.297"
           d="m 108.55625,282.12064 6.24552,-7.56903"
           id="path115"
           sodipodi:nodetypes="cc" /><path
           style="fill:none;stroke:#605757;stroke-width:0.297"
           d="m 100.16768,271.88353 13.70878,1.13644 m -2.08362,-2.93244 c -1.16533,-1.31297 -4.22782,-0.6278 -8.74705,-1.65049"
           id="path116"
           sodipodi:nodetypes="cccc" /><path
           style="fill:none;stroke:#605757;stroke-width:0.297"
           d="m 89.891626,267.28992 9.364444,0.52609"
           id="path117"
           sodipodi:nodetypes="cc" /><path
           style="fill:none;stroke:#605757;stroke-width:0.297"
           d="m 92.80267,271.183 2.770754,0.2806"
           id="path118"
           sodipodi:nodetypes="cc" /><path
           style="fill:none;stroke:#605757;stroke-width:0.297"
           d="m 106.85311,263.42065 c 0,0 -11.618476,16.20747 -15.207842,15.3381 -3.589367,-0.86937 11.784462,-14.9761 11.784462,-14.9761"
           id="path119"
           sodipodi:nodetypes="czc" /><path
           style="fill:none;stroke:#605757;stroke-width:0.297"
           d="m 93.925001,261.71335 c 0,0 11.745149,3.35155 13.012009,1.61334 1.26687,-1.73821 -9.64502,-5.12062 -9.64502,-5.12062"
           id="path120"
           sodipodi:nodetypes="czc" /><path
           style="fill:none;stroke:#605757;stroke-width:0.297"
           d="m 86.267816,262.47181 c 0,0 -4.41484,3.47604 -2.182878,5.31155 2.231963,1.83551 15.493789,-11.1929 16.166872,-12.92355 0.67309,-1.73066 -0.578841,-2.83982 -1.673068,-2.63015 -1.094227,0.20967 -12.310926,10.24215 -12.310926,10.24215 z"
           id="path121"
           sodipodi:nodetypes="czzzc" /><path
           style="fill:none;stroke:#605757;stroke-width:0.297"
           d="m 84.943629,260.54243 c 1.190571,-0.25683 2.472358,-0.24001 3.772955,-0.16676"
           id="path122"
           sodipodi:nodetypes="cc" /><path
           style="fill:none;stroke:#605757;stroke-width:0.297"
           d="m 81.733487,255.99821 c 3.669048,-0.1437 7.440083,0.0332 11.219922,0.66504"
           id="path123"
           sodipodi:nodetypes="cc" /><path
           style="fill:none;stroke:#605757;stroke-width:0.297"
           d="m 98.360305,252.26055 -3.729043,-6.93932"
           id="path125"
           sodipodi:nodetypes="cc" /><path
           style="fill:none;stroke:#605757;stroke-width:0.297"
           d="m 105.14463,261.31186 -4.98867,-6.22399"
           id="path124"
           sodipodi:nodetypes="cc" /></g></g></g><plotdata
     application="axidraw"
     model="2"
     layer="-2"
     node="0"
     last_path="0"
     node_after_path="0"
     last_known_x="0"
     last_known_y="0"
     paused_x="0"
     paused_y="0"
     randseed="0"
     row="0"
     id="1760355979" /></svg>
