<?xml version="1.0" encoding="UTF-8"?>
<svg id="Layer_2" xmlns="http://www.w3.org/2000/svg" version="1.1" viewBox="0 0 57.4 57.4">
  <!-- Generator: Adobe Illustrator 30.2.1, SVG Export Plug-In . SVG Version: 2.1.1 Build 1)  -->
  <g id="Layer_1-2">
    <g>
      <path d="M43.9,10.2c-1.9,0-3.4,1.5-3.4,3.4s1.5,3.4,3.4,3.4,3.4-1.5,3.4-3.4-1.5-3.4-3.4-3.4Z"/>
      <path d="M28.9,14.6c-7.8,0-14.1,6.3-14.1,14.1s6.3,14.1,14.1,14.1,14.1-6.3,14.1-14.1-6.3-14.1-14.1-14.1ZM28.9,37.8c-5,0-9.1-4.1-9.1-9.1s4.1-9.1,9.1-9.1,9.1,4.1,9.1,9.1-4.1,9.1-9.1,9.1Z"/>
      <path d="M40.2,0h-22.9C7.7,0,0,7.7,0,17.2v22.9c0,9.5,7.7,17.2,17.2,17.2h22.9c9.5,0,17.2-7.7,17.2-17.2v-22.9C57.4,7.7,49.7,0,40.2,0h0ZM52,40.2c0,6.5-5.3,11.8-11.8,11.8h-22.9c-6.5,0-11.8-5.3-11.8-11.8v-22.9c0-6.5,5.3-11.8,11.8-11.8h22.9c6.5,0,11.8,5.3,11.8,11.8v22.9Z"/>
    </g>
  </g>
</svg>