<?xml version="1.0" encoding="UTF-8"?>
<svg id="Layer_2" xmlns="http://www.w3.org/2000/svg" version="1.1" viewBox="0 0 47.4 55.4">
  <!-- Generator: Adobe Illustrator 30.2.1, SVG Export Plug-In . SVG Version: 2.1.1 Build 1)  -->
  <g id="Layer_1-2">
    <path d="M33.8,0h-7.9v38.7c0,4.8-4.3,8.5-9,8.5s-8.6-3.8-8.6-8.6,3.9-8.6,8.6-8.6.7,0,1,.1v-8.3c-.4,0-.7,0-1,0C7.5,21.8,0,29.3,0,38.6s7.5,16.8,16.8,16.8,16.8-7.5,16.8-16.8V15.8c2.7,4.2,7.4,6.7,12.4,6.7s.9,0,1.4,0h0v-9.2c-7.1-.5-12.9-6.1-13.6-13.2h0Z"/>
  </g>
</svg>